<svg width="243" height="315" viewBox="0 0 243 315" fill="none" xmlns="http://www.w3.org/2000/svg">
<g filter="url(#filter0_d_1_1296)">
<path d="M243 12H28V262H243V12Z" fill="#F1F1F1"/>
<path d="M65.744 205.967H60.4154V205.079H65.744V205.967ZM55.0868 205.967H49.7582V205.079H55.0868V205.967ZM44.4296 205.967H39.101V205.079H44.4296V205.967ZM33.7724 205.967H28.4438V205.079H33.7724V205.967Z" fill="#E6E6E6"/>
<path d="M140.344 163.865H135.016V162.977H140.344V163.865ZM129.687 163.865H124.359V162.977H129.687V163.865ZM119.03 163.865H113.701V162.977H119.03V163.865ZM108.373 163.865H103.044V162.977H108.373V163.865ZM97.7155 163.865H92.3869V162.977H97.7155V163.865ZM87.0583 163.865H81.7297V162.977H87.0583V163.865ZM76.4011 163.865H71.0726V162.977H76.4011V163.865ZM65.744 163.865H60.4154V162.977H65.744V163.865ZM55.0868 163.865H49.7582V162.977H55.0868V163.865ZM44.4296 163.865H39.101V162.977H44.4296V163.865ZM33.7724 163.865H28.4438V162.977H33.7724V163.865Z" fill="#E6E6E6"/>
<path d="M246.916 137.666H241.588V136.778H246.916V137.666ZM236.259 137.666H230.93V136.778H236.259V137.666ZM225.602 137.666H220.273V136.778H225.602V137.666ZM214.945 137.666H209.616V136.778H214.945V137.666ZM204.287 137.666H198.959V136.778H204.287V137.666ZM193.63 137.666H188.302V136.778H193.63V137.666ZM182.973 137.666H177.644V136.778H182.973V137.666ZM172.316 137.666H166.987V136.778H172.316V137.666ZM161.659 137.666H156.33V136.778H161.659V137.666ZM151.001 137.666H145.673V136.778H151.001V137.666ZM140.344 137.666H135.016V136.778H140.344V137.666ZM129.687 137.666H124.359V136.778H129.687V137.666ZM119.03 137.666H113.701V136.778H119.03V137.666ZM108.373 137.666H103.044V136.778H108.373V137.666ZM97.7155 137.666H92.3869V136.778H97.7155V137.666ZM87.0583 137.666H81.7297V136.778H87.0583V137.666ZM76.4011 137.666H71.0726V136.778H76.4011V137.666ZM65.744 137.666H60.4154V136.778H65.744V137.666ZM55.0868 137.666H49.7582V136.778H55.0868V137.666ZM44.4296 137.666H39.101V136.778H44.4296V137.666ZM33.7724 137.666H28.4438V136.778H33.7724V137.666Z" fill="#E6E6E6"/>
<path d="M68.8527 12.3445H67.9646V15.0088H68.8527V12.3445Z" fill="#E6E6E6"/>
<path d="M68.8527 214.131H67.9646V208.891H68.8527V214.131ZM68.8527 203.651H67.9646V198.411H68.8527V203.651ZM68.8527 193.171H67.9646V187.931H68.8527V193.171ZM68.8527 182.691H67.9646V177.451H68.8527V182.691ZM68.8527 172.21H67.9646V166.97H68.8527V172.21ZM68.8527 161.73H67.9646V156.49H68.8527V161.73ZM68.8527 151.25H67.9646V146.01H68.8527V151.25ZM68.8527 140.77H67.9646V135.53H68.8527V140.77ZM68.8527 130.29H67.9646V125.05H68.8527V130.29ZM68.8527 119.81H67.9646V114.57H68.8527V119.81ZM68.8527 109.33H67.9646V104.09H68.8527V109.33ZM68.8527 98.8497H67.9646V93.6096H68.8527V98.8497ZM68.8527 88.3696H67.9646V83.1295H68.8527V88.3696ZM68.8527 77.8894H67.9646V72.6495H68.8527V77.8894ZM68.8527 67.4093H67.9646V62.1692H68.8527V67.4093ZM68.8527 56.9293H67.9646V51.6891H68.8527V56.9293ZM68.8527 46.449H67.9646V41.2091H68.8527V46.449ZM68.8527 35.969H67.9646V30.7288H68.8527V35.969ZM68.8527 25.4889H67.9646V20.2488H68.8527V25.4889Z" fill="#E6E6E6"/>
<path d="M68.8527 219.371H67.9646V222.035H68.8527V219.371Z" fill="#E6E6E6"/>
<path d="M146.117 12.3445H145.229V15.0088H146.117V12.3445Z" fill="#E6E6E6"/>
<path d="M146.117 173.674H145.229V168.385H146.117V173.674ZM146.117 163.096H145.229V157.808H146.117V163.096ZM146.117 152.518H145.229V147.23H146.117V152.518ZM146.117 141.941H145.229V136.652H146.117V141.941ZM146.117 131.363H145.229V126.074H146.117V131.363ZM146.117 120.786H145.229V115.497H146.117V120.786ZM146.117 110.208H145.229V104.919H146.117V110.208ZM146.117 99.6301H145.229V94.3414H146.117V99.6301ZM146.117 89.0525H145.229V83.7635H146.117V89.0525ZM146.117 78.4748H145.229V73.1859H146.117V78.4748ZM146.117 67.8972H145.229V62.6083H146.117V67.8972ZM146.117 57.3194H145.229V52.0307H146.117V57.3194ZM146.117 46.7418H145.229V41.4529H146.117V46.7418ZM146.117 36.1642H145.229V30.8752H146.117V36.1642ZM146.117 25.5865H145.229V20.2976H146.117V25.5865Z" fill="#E6E6E6"/>
<path d="M146.117 178.963H145.229V181.627H146.117V178.963Z" fill="#E6E6E6"/>
<path d="M29.0853 261.609L69.4149 221.154L87.807 239.603L146.086 181.143L183.756 218.931L251.563 150.913V261.609H29.0853Z" fill="#7EC845"/>
<path d="M251.563 262.609H28V13H251.563V262.609ZM28.8872 261.724H250.676V13.8851H28.8872V261.724Z" fill="#3F3D56"/>
<path d="M68.4081 210.49C71.5963 210.49 74.1808 207.906 74.1808 204.717C74.1808 201.529 71.5963 198.945 68.4081 198.945C65.22 198.945 62.6355 201.529 62.6355 204.717C62.6355 207.906 65.22 210.49 68.4081 210.49Z" fill="#3F3D56"/>
<path d="M145.674 169.194C148.862 169.194 151.446 166.609 151.446 163.421C151.446 160.233 148.862 157.648 145.674 157.648C142.486 157.648 139.901 160.233 139.901 163.421C139.901 166.609 142.486 169.194 145.674 169.194Z" fill="#3F3D56"/>
<path d="M210.948 47.5239C208.365 48.2733 204.9 48.8522 202.335 48.6473L205.682 50.8708L48.1618 167.505L48.6899 168.218L206.21 51.5844L207.361 55.4355C207.913 52.9221 209.478 49.7768 210.948 47.5239Z" fill="#3F3D56"/>
</g>
<defs>
<filter id="filter0_d_1_1296" x="0" y="0" width="293.13" height="314.609" filterUnits="userSpaceOnUse" color-interpolation-filters="sRGB">
<feFlood flood-opacity="0" result="BackgroundImageFix"/>
<feColorMatrix in="SourceAlpha" type="matrix" values="0 0 0 0 0 0 0 0 0 0 0 0 0 0 0 0 0 0 127 0" result="hardAlpha"/>
<feOffset dx="4" dy="20"/>
<feGaussianBlur stdDeviation="16"/>
<feColorMatrix type="matrix" values="0 0 0 0 0 0 0 0 0 0 0 0 0 0 0 0 0 0 0.25 0"/>
<feBlend mode="normal" in2="BackgroundImageFix" result="effect1_dropShadow_1_1296"/>
<feBlend mode="normal" in="SourceGraphic" in2="effect1_dropShadow_1_1296" result="shape"/>
</filter>
</defs>
</svg>
