<svg width="351" height="350" viewBox="0 0 351 350" fill="none" xmlns="http://www.w3.org/2000/svg">
<line x1="0.5" y1="0.5" x2="0.5" y2="349.5" stroke="#D1C1B4" stroke-linecap="round"/>
<line x1="8.73526" y1="0.5" x2="8.73526" y2="349.5" stroke="#D1C1B4" stroke-linecap="round"/>
<line x1="23.833" y1="0.5" x2="23.833" y2="349.5" stroke="#D1C1B4" stroke-linecap="round"/>
<line x1="41.6763" y1="0.5" x2="41.6763" y2="349.5" stroke="#D1C1B4" stroke-linecap="round"/>
<line x1="47.1664" y1="0.5" x2="47.1664" y2="349.5" stroke="#D1C1B4" stroke-linecap="round"/>
<line x1="55.4017" y1="0.5" x2="55.4017" y2="349.5" stroke="#D1C1B4" stroke-linecap="round"/>
<line x1="60.8916" y1="0.5" x2="60.8916" y2="349.5" stroke="#D1C1B4" stroke-linecap="round"/>
<line x1="73.245" y1="0.5" x2="73.245" y2="349.5" stroke="#D1C1B4" stroke-linecap="round"/>
<line x1="77.3626" y1="0.5" x2="77.3626" y2="349.5" stroke="#D1C1B4" stroke-linecap="round"/>
<line x1="89.7155" y1="0.5" x2="89.7155" y2="349.5" stroke="#D1C1B4" stroke-linecap="round"/>
<line x1="96.5785" y1="0.5" x2="96.5785" y2="349.5" stroke="#D1C1B4" stroke-linecap="round"/>
<line x1="103.441" y1="0.5" x2="103.441" y2="349.5" stroke="#D1C1B4" stroke-linecap="round"/>
<line x1="110.304" y1="0.5" x2="110.304" y2="349.5" stroke="#D1C1B4" stroke-linecap="round"/>
<line x1="16.9705" y1="0.5" x2="16.9705" y2="349.5" stroke="#D1C1B4" stroke-linecap="round"/>
<line x1="124.03" y1="0.5" x2="124.03" y2="349.5" stroke="#D1C1B4" stroke-linecap="round"/>
<line x1="132.265" y1="0.5" x2="132.265" y2="349.5" stroke="#D1C1B4" stroke-linecap="round"/>
<line x1="147.363" y1="0.5" x2="147.363" y2="349.5" stroke="#D1C1B4" stroke-linecap="round"/>
<line x1="165.206" y1="0.5" x2="165.206" y2="349.5" stroke="#D1C1B4" stroke-linecap="round"/>
<line x1="170.696" y1="0.5" x2="170.696" y2="349.5" stroke="#D1C1B4" stroke-linecap="round"/>
<line x1="178.932" y1="0.5" x2="178.932" y2="349.5" stroke="#D1C1B4" stroke-linecap="round"/>
<line x1="184.422" y1="0.5" x2="184.422" y2="349.5" stroke="#D1C1B4" stroke-linecap="round"/>
<line x1="196.775" y1="0.5" x2="196.775" y2="349.5" stroke="#D1C1B4" stroke-linecap="round"/>
<line x1="200.892" y1="0.5" x2="200.892" y2="349.5" stroke="#D1C1B4" stroke-linecap="round"/>
<line x1="213.245" y1="0.5" x2="213.245" y2="349.5" stroke="#D1C1B4" stroke-linecap="round"/>
<line x1="220.108" y1="0.5" x2="220.108" y2="349.5" stroke="#D1C1B4" stroke-linecap="round"/>
<line x1="226.97" y1="0.5" x2="226.97" y2="349.5" stroke="#D1C1B4" stroke-linecap="round"/>
<line x1="233.834" y1="0.5" x2="233.834" y2="349.5" stroke="#D1C1B4" stroke-linecap="round"/>
<line x1="140.5" y1="0.5" x2="140.5" y2="349.5" stroke="#D1C1B4" stroke-linecap="round"/>
<line x1="240.696" y1="0.5" x2="240.696" y2="349.5" stroke="#D1C1B4" stroke-linecap="round"/>
<line x1="248.931" y1="0.5" x2="248.931" y2="349.5" stroke="#D1C1B4" stroke-linecap="round"/>
<line x1="264.029" y1="0.5" x2="264.029" y2="349.5" stroke="#D1C1B4" stroke-linecap="round"/>
<line x1="281.873" y1="0.5" x2="281.873" y2="349.5" stroke="#D1C1B4" stroke-linecap="round"/>
<line x1="287.363" y1="0.5" x2="287.363" y2="349.5" stroke="#D1C1B4" stroke-linecap="round"/>
<line x1="295.598" y1="0.5" x2="295.598" y2="349.5" stroke="#D1C1B4" stroke-linecap="round"/>
<line x1="301.089" y1="0.5" x2="301.089" y2="349.5" stroke="#D1C1B4" stroke-linecap="round"/>
<line x1="313.441" y1="0.5" x2="313.441" y2="349.5" stroke="#D1C1B4" stroke-linecap="round"/>
<line x1="317.559" y1="0.5" x2="317.559" y2="349.5" stroke="#D1C1B4" stroke-linecap="round"/>
<line x1="329.912" y1="0.5" x2="329.912" y2="349.5" stroke="#D1C1B4" stroke-linecap="round"/>
<line x1="336.775" y1="0.5" x2="336.775" y2="349.5" stroke="#D1C1B4" stroke-linecap="round"/>
<line x1="343.637" y1="0.5" x2="343.637" y2="349.5" stroke="#D1C1B4" stroke-linecap="round"/>
<line x1="350.5" y1="0.5" x2="350.5" y2="349.5" stroke="#D1C1B4" stroke-linecap="round"/>
<line x1="257.167" y1="0.5" x2="257.167" y2="349.5" stroke="#D1C1B4" stroke-linecap="round"/>
</svg>
