<svg width="20" height="20" viewBox="0 0 20 20" fill="none" xmlns="http://www.w3.org/2000/svg">
<path d="M19.9995 14.9741V17.9848C20.004 19.0934 19.1071 19.9955 17.9964 20C17.9333 20.0003 17.8702 19.9975 17.8071 19.9917C14.7126 19.6562 11.7405 18.601 9.12876 16.9106C6.69908 15.3696 4.63906 13.3137 3.09526 10.8888C1.39589 8.27124 0.338308 5.29017 0.00829631 2.18807C-0.0917203 1.08391 0.724148 0.108025 1.83037 0.00836578C1.89002 0.00284242 1.9497 0.000100596 2.00934 0.000100596H5.02629C6.0356 -0.00991299 6.89633 0.728748 7.03736 1.72633C7.16459 2.68978 7.40083 3.63603 7.74117 4.54635C8.01738 5.2798 7.84083 6.10672 7.28877 6.66394L6.01152 7.93845C7.44291 10.4509 9.52744 12.5313 12.045 13.9602L13.3223 12.6857C13.8806 12.1347 14.7092 11.9585 15.444 12.234C16.3565 12.5737 17.3044 12.8095 18.2699 12.9364C19.2813 13.0792 20.0251 13.9551 19.9995 14.9741Z" fill="#7EC845"/>
</svg>
