<svg width="800" height="336" viewBox="0 0 800 336" fill="none" xmlns="http://www.w3.org/2000/svg">
<path d="M400 335.979C620.914 335.979 800 329.589 800 321.705C800 313.822 620.914 307.432 400 307.432C179.086 307.432 0 313.822 0 321.705C0 329.589 179.086 335.979 400 335.979Z" fill="#3F3D56"/>
<path d="M711.98 241.889C713.465 239.296 714.232 236.354 714.202 233.366C714.202 225.665 709.444 219.418 703.545 219.418C697.645 219.418 692.894 225.665 692.894 233.366C692.864 236.354 693.631 239.296 695.116 241.889C693.659 244.493 692.894 247.428 692.894 250.412C692.894 253.397 693.659 256.331 695.116 258.936C693.659 261.539 692.894 264.472 692.894 267.456C692.894 270.439 693.659 273.372 695.116 275.976C693.659 278.58 692.894 281.515 692.894 284.499C692.894 287.483 693.659 290.418 695.116 293.022C693.631 295.615 692.864 298.558 692.894 301.546C692.894 309.247 697.652 315.493 703.545 315.493C709.438 315.493 714.202 309.247 714.202 301.546C714.232 298.558 713.465 295.615 711.98 293.022C713.437 290.418 714.202 287.483 714.202 284.499C714.202 281.515 713.437 278.58 711.98 275.976C713.437 273.372 714.202 270.439 714.202 267.456C714.202 264.472 713.437 261.539 711.98 258.936C713.437 256.331 714.202 253.397 714.202 250.412C714.202 247.428 713.437 244.493 711.98 241.889V241.889Z" fill="#3F3D56"/>
<path d="M703.517 230.266C709.4 230.266 714.168 224.022 714.168 216.319C714.168 208.616 709.4 202.371 703.517 202.371C697.635 202.371 692.867 208.616 692.867 216.319C692.867 224.022 697.635 230.266 703.517 230.266Z" fill="#3F3D56"/>
<path d="M703.517 213.219C709.4 213.219 714.168 206.975 714.168 199.272C714.168 191.569 709.4 185.325 703.517 185.325C697.635 185.325 692.867 191.569 692.867 199.272C692.867 206.975 697.635 213.219 703.517 213.219Z" fill="#3F3D56"/>
<path d="M663.64 82.6229C662.184 80.7702 660.858 78.8194 659.67 76.7843L687.667 72.1896L657.387 72.4139C654.483 66.0945 652.899 59.2491 652.732 52.2966C652.565 45.3441 653.818 38.4305 656.415 31.9789L697.033 53.0494L659.575 25.515C663.08 19.4443 667.799 14.1608 673.436 9.99395C679.073 5.82715 685.508 2.86642 692.34 1.2964C699.172 -0.273625 706.254 -0.41926 713.144 0.868558C720.035 2.15638 726.587 4.85003 732.39 8.78156C738.194 12.7131 743.125 17.7981 746.877 23.7197C750.629 29.6412 753.12 36.2722 754.196 43.1991C755.272 50.126 754.909 57.2002 753.131 63.9808C751.352 70.7613 748.195 77.1026 743.857 82.6093C746.13 85.4919 748.081 88.6144 749.675 91.9211L713.339 110.81L752.082 97.8073C754.801 105.849 755.473 114.442 754.036 122.809C752.599 131.176 749.098 139.052 743.851 145.726C749.774 153.252 753.46 162.294 754.486 171.817C755.513 181.34 753.838 190.959 749.655 199.575C745.471 208.191 738.948 215.456 730.829 220.539C722.711 225.622 713.327 228.317 703.749 228.317C694.171 228.317 684.786 225.622 676.668 220.539C668.55 215.456 662.026 208.191 657.842 199.575C653.659 190.959 651.985 181.34 653.011 171.817C654.037 162.294 657.723 153.252 663.647 145.726C656.571 136.731 652.724 125.619 652.724 114.174C652.724 102.73 656.571 91.6178 663.647 82.6229H663.64Z" fill="#57B894"/>
<path opacity="0.1" d="M754.801 114.174C754.818 125.622 750.969 136.739 743.878 145.726C749.801 153.252 753.487 162.294 754.513 171.817C755.54 181.34 753.866 190.959 749.682 199.575C745.499 208.191 738.975 215.456 730.857 220.539C722.739 225.622 713.354 228.317 703.776 228.317C694.198 228.317 684.813 225.622 676.695 220.539C668.577 215.456 662.053 208.191 657.87 199.575C653.686 190.959 652.012 181.34 653.038 171.817C654.065 162.294 657.751 153.252 663.674 145.726C656.802 137.046 754.801 108.451 754.801 114.174Z" fill="black"/>
<path d="M669.553 4.79828H130.447C122.782 4.79828 116.568 11.0123 116.568 18.6776V300.859C116.568 308.525 122.782 314.739 130.447 314.739H669.553C677.219 314.739 683.433 308.525 683.433 300.859V18.6776C683.433 11.0123 677.219 4.79828 669.553 4.79828Z" fill="#F2F2F2"/>
<path d="M116.908 20.0912H299.066V315.079H130.787C127.106 315.079 123.576 313.616 120.973 311.013C118.37 308.41 116.908 304.88 116.908 301.199V20.0912Z" fill="#7EC845"/>
<path d="M683.433 18.6772V26.5549H116.568V18.6772C116.568 16.8549 116.927 15.0504 117.624 13.3669C118.322 11.6833 119.344 10.1537 120.633 8.86546C121.922 7.57719 123.452 6.55548 125.136 5.85872C126.82 5.16195 128.625 4.8038 130.447 4.80469H669.553C671.376 4.8038 673.18 5.16195 674.864 5.85872C676.548 6.55548 678.078 7.57719 679.367 8.86546C680.656 10.1537 681.679 11.6833 682.376 13.3669C683.074 15.0504 683.433 16.8549 683.433 18.6772V18.6772Z" fill="#3F3D56"/>
<path d="M131.181 20.0913C133.433 20.0913 135.259 18.2655 135.259 16.0132C135.259 13.7609 133.433 11.935 131.181 11.935C128.929 11.935 127.103 13.7609 127.103 16.0132C127.103 18.2655 128.929 20.0913 131.181 20.0913Z" fill="#7EC845"/>
<path d="M141.376 20.0913C143.629 20.0913 145.455 18.2655 145.455 16.0132C145.455 13.7609 143.629 11.935 141.376 11.935C139.124 11.935 137.298 13.7609 137.298 16.0132C137.298 18.2655 139.124 20.0913 141.376 20.0913Z" fill="#7EC845"/>
<path d="M151.572 20.0913C153.824 20.0913 155.65 18.2655 155.65 16.0132C155.65 13.7609 153.824 11.935 151.572 11.935C149.319 11.935 147.494 13.7609 147.494 16.0132C147.494 18.2655 149.319 20.0913 151.572 20.0913Z" fill="#7EC845"/>
<path opacity="0.3" d="M649.964 63.3334H415.796C415.33 63.3334 414.953 63.7108 414.953 64.1763V69.9672C414.953 70.4327 415.33 70.8101 415.796 70.8101H649.964C650.43 70.8101 650.807 70.4327 650.807 69.9672V64.1763C650.807 63.7108 650.43 63.3334 649.964 63.3334Z" fill="#7EC845"/>
<path d="M646.566 77.6069H598.634C598.168 77.6069 597.791 77.9842 597.791 78.4497V93.7564C597.791 94.2219 598.168 94.5992 598.634 94.5992H646.566C647.031 94.5992 647.409 94.2219 647.409 93.7564V78.4497C647.409 77.9842 647.031 77.6069 646.566 77.6069Z" fill="#7EC845"/>
<path opacity="0.3" d="M649.964 154.249H415.796C415.33 154.249 414.953 154.626 414.953 155.092V160.883C414.953 161.348 415.33 161.726 415.796 161.726H649.964C650.43 161.726 650.807 161.348 650.807 160.883V155.092C650.807 154.626 650.43 154.249 649.964 154.249Z" fill="#7EC845"/>
<path d="M646.566 168.523H598.634C598.168 168.523 597.791 168.9 597.791 169.366V184.672C597.791 185.138 598.168 185.515 598.634 185.515H646.566C647.031 185.515 647.409 185.138 647.409 184.672V169.366C647.409 168.9 647.031 168.523 646.566 168.523Z" fill="#7EC845"/>
<path opacity="0.3" d="M649.964 246.688H415.796C415.33 246.688 414.953 247.065 414.953 247.53V253.321C414.953 253.787 415.33 254.164 415.796 254.164H649.964C650.43 254.164 650.807 253.787 650.807 253.321V247.53C650.807 247.065 650.43 246.688 649.964 246.688Z" fill="#7EC845"/>
<path d="M646.566 260.961H598.634C598.168 260.961 597.791 261.338 597.791 261.804V277.11C597.791 277.576 598.168 277.953 598.634 277.953H646.566C647.031 277.953 647.409 277.576 647.409 277.11V261.804C647.409 261.338 647.031 260.961 646.566 260.961Z" fill="#7EC845"/>
<path d="M363.766 203.541C382.355 203.541 397.424 188.471 397.424 169.882C397.424 151.293 382.355 136.224 363.766 136.224C345.177 136.224 330.107 151.293 330.107 169.882C330.107 188.471 345.177 203.541 363.766 203.541Z" fill="#3F3D56"/>
<path d="M393.468 187.636C393.431 187.717 393.383 187.793 393.325 187.86C392.959 188.467 392.562 189.054 392.136 189.621C388.403 194.788 383.275 198.784 377.352 201.141C376.768 201.386 376.17 201.61 375.565 201.821C375.005 201.373 374.486 200.874 374.015 200.333C372.611 198.738 371.671 196.789 371.296 194.698C370.4 194.871 369.49 194.957 368.578 194.956C368.487 194.963 368.396 194.963 368.306 194.956C361.305 194.834 355.296 189.709 352.612 182.395L352.503 182.083C350.866 177.319 350.681 172.175 351.973 167.306V167.306C352.007 167.143 352.061 166.98 352.109 166.824C354.406 158.932 360.469 153.182 367.68 152.727C367.905 152.727 368.129 152.727 368.36 152.727C368.591 152.727 368.727 152.727 368.911 152.727H369.237C378.372 153.06 385.726 161.896 386.066 172.948C387.933 174.174 389.412 175.907 390.328 177.944C391.244 179.981 391.56 182.238 391.239 184.448C392.15 185.383 392.903 186.459 393.468 187.636Z" fill="#192534"/>
<path opacity="0.1" d="M393.325 187.86C392.959 188.467 392.562 189.054 392.136 189.621C391.644 188.737 391.033 187.926 390.321 187.208C390.399 186.647 390.44 186.081 390.443 185.515C390.443 183.569 389.959 181.654 389.035 179.942C388.111 178.23 386.775 176.775 385.149 175.707C384.775 164.424 377.101 155.412 367.701 155.412C360.985 155.412 355.16 159.993 352.231 166.722C352.156 166.898 352.088 167.068 352.007 167.252C351.762 167.836 351.545 168.428 351.327 169.046C351.567 167.804 351.901 166.581 352.326 165.389L352.421 165.294C355.038 158.083 360.884 152.965 367.748 152.659C367.973 152.659 368.197 152.659 368.428 152.659C368.659 152.659 368.795 152.659 368.979 152.659H369.305C378.311 153.203 385.522 161.998 385.869 172.934C387.74 174.157 389.223 175.889 390.142 177.927C391.061 179.964 391.378 182.223 391.055 184.434C392.01 185.432 392.779 186.592 393.325 187.86V187.86Z" fill="black"/>
<path d="M357.859 178.209C357.943 178.897 357.864 179.595 357.628 180.248C357.227 181.179 356.269 182.015 356.534 182.966C356.668 183.265 356.872 183.528 357.127 183.733C357.382 183.938 357.682 184.081 358.002 184.149C360.931 185.141 364.119 184.55 367.219 184.686C368.251 184.776 369.288 184.813 370.325 184.795C371.367 184.772 372.376 184.419 373.207 183.789C371.597 183.007 370.076 182.052 368.673 180.941C368.332 180.688 368.024 180.393 367.755 180.064C367.179 179.132 366.902 178.046 366.96 176.951C366.96 175.87 366.96 174.79 366.96 173.716C364.744 173.716 362.535 173.682 360.32 173.682C359.64 173.682 357.445 173.512 357.193 174.28C357.071 174.661 357.546 175.782 357.621 176.21C357.735 176.872 357.815 177.539 357.859 178.209V178.209Z" fill="#A0616A"/>
<path opacity="0.1" d="M357.859 178.209C357.943 178.897 357.864 179.595 357.628 180.248C357.227 181.179 356.269 182.015 356.534 182.966C356.668 183.265 356.872 183.528 357.127 183.733C357.382 183.938 357.682 184.081 358.002 184.149C360.931 185.141 364.119 184.55 367.219 184.686C368.251 184.776 369.288 184.813 370.325 184.795C371.367 184.772 372.376 184.419 373.207 183.789C371.597 183.007 370.076 182.052 368.673 180.941C368.332 180.688 368.024 180.393 367.755 180.064C367.179 179.132 366.902 178.046 366.96 176.951C366.96 175.87 366.96 174.79 366.96 173.716C364.744 173.716 362.535 173.682 360.32 173.682C359.64 173.682 357.445 173.512 357.193 174.28C357.071 174.661 357.546 175.782 357.621 176.21C357.735 176.872 357.815 177.539 357.859 178.209V178.209Z" fill="black"/>
<path d="M362.413 177.23C366.726 177.23 370.223 173.733 370.223 169.42C370.223 165.107 366.726 161.61 362.413 161.61C358.1 161.61 354.603 165.107 354.603 169.42C354.603 173.733 358.1 177.23 362.413 177.23Z" fill="#A0616A"/>
<path d="M377.224 192.074C377.224 192.285 377.183 192.509 377.149 192.754C376.896 194.02 376.525 195.261 376.041 196.458C375.754 197.271 375.409 198.061 375.008 198.823C374.715 199.347 374.328 199.829 374.015 200.339L373.567 201.066C373.281 201.557 373.037 202.071 372.839 202.603C371.528 202.938 370.195 203.181 368.85 203.33C367.535 203.488 366.212 203.567 364.887 203.568C357.784 203.568 350.124 201.726 344.693 197.96C344.693 197.96 345.489 197.41 345.373 197.281C345.373 196.968 345.339 196.662 345.339 196.349C345.331 195.544 345.462 194.744 345.727 193.984C345.958 193.255 346.361 192.593 346.902 192.054C347.582 191.374 348.493 190.953 349.22 190.3C350.149 189.401 350.807 188.259 351.116 187.004V187.004C351.286 186.46 351.409 185.882 351.524 185.325C351.628 184.563 351.838 183.819 352.15 183.116C352.193 183.026 352.243 182.94 352.299 182.857C352.403 182.683 352.526 182.521 352.666 182.375C353.359 181.699 354.17 181.155 355.059 180.771C355.8 180.39 356.839 180.091 357.356 180.723V180.771C357.525 181.16 357.668 181.559 357.784 181.967C358.199 182.823 359.354 182.932 360.292 182.912C363.61 182.842 366.919 182.565 370.202 182.083L371.793 181.824C372.941 181.634 373.743 182.64 374.389 183.619C376.061 186.14 377.475 189.043 377.224 192.074Z" fill="#7EC845"/>
<path opacity="0.1" d="M353.373 192.604C352.646 192.767 352.224 193.502 351.884 194.168C351.24 195.262 350.957 196.532 351.075 197.797C351.056 198.294 351.108 198.791 351.232 199.272C351.357 199.757 351.664 200.175 352.088 200.441" stroke="black" stroke-miterlimit="10"/>
<path d="M372.873 165.972C373.463 163.667 370.152 160.829 365.479 159.634C360.805 158.439 356.539 159.34 355.95 161.646C355.36 163.952 358.671 166.789 363.344 167.984C368.018 169.179 372.284 168.278 372.873 165.972Z" fill="#192534"/>
<path opacity="0.1" d="M363.779 166.348C359.626 165.287 356.554 162.949 356.302 160.801C356.109 161.043 355.97 161.324 355.895 161.624C355.303 163.928 358.613 166.762 363.283 167.959C367.952 169.155 372.221 168.251 372.799 165.919C372.864 165.662 372.882 165.395 372.853 165.131C371.609 166.844 367.85 167.388 363.779 166.348Z" fill="black"/>
<path d="M377.427 197.613C377.427 198.796 377.427 199.972 377.353 201.141C376.768 201.386 376.17 201.61 375.565 201.821C374.674 202.13 373.766 202.389 372.846 202.596C371.535 202.931 370.202 203.174 368.856 203.323C368.619 200.509 368.082 197.797 368.347 194.942C368.567 192.755 369.319 190.656 370.535 188.825C371.012 188.023 371.695 187.364 372.513 186.915C372.922 186.698 373.383 186.602 373.844 186.638C374.306 186.674 374.747 186.841 375.116 187.119C375.579 187.602 375.903 188.201 376.054 188.852C376.513 190.127 376.881 191.433 377.155 192.76C377.155 192.903 377.203 193.06 377.223 193.209C377.412 194.669 377.48 196.142 377.427 197.613V197.613Z" fill="#A0616A"/>
<path d="M397.417 262.32C397.433 267.949 396.03 273.492 393.339 278.436C393.04 278.98 392.727 279.53 392.374 280.074C392.337 280.155 392.289 280.23 392.231 280.298C391.864 280.905 391.467 281.492 391.041 282.059C388.459 285.64 385.19 288.671 381.424 290.976L381.227 291.112C379.989 291.855 378.707 292.52 377.386 293.104C377.019 293.267 376.639 293.423 376.258 293.579C375.877 293.736 375.524 293.878 375.143 294.001C374.953 294.082 374.749 294.15 374.552 294.218C374.53 294.215 374.507 294.215 374.484 294.218C374.07 294.368 373.641 294.497 373.22 294.626L372.9 294.701C372.52 294.816 372.139 294.912 371.759 294.993C370.445 295.329 369.11 295.572 367.762 295.72C366.456 295.879 365.142 295.958 363.827 295.958C363.691 295.958 363.555 295.958 363.419 295.958C361.595 295.953 359.775 295.784 357.981 295.455L357.655 295.401C357.322 295.347 356.975 295.279 356.656 295.197L356.024 295.054C355.353 294.907 354.691 294.726 354.039 294.511C352.711 294.112 351.41 293.629 350.144 293.063L350.002 293.002C348.148 292.162 346.376 291.154 344.707 289.991C344.565 289.907 344.428 289.814 344.299 289.712C339.6 286.362 335.841 281.86 333.384 276.639C330.927 271.417 329.854 265.652 330.268 259.896C330.682 254.14 332.57 248.587 335.749 243.771C338.928 238.955 343.292 235.038 348.422 232.395C353.553 229.752 359.276 228.473 365.043 228.681C370.81 228.888 376.427 230.575 381.354 233.579C386.281 236.584 390.352 240.805 393.177 245.837C396.002 250.869 397.485 256.543 397.485 262.313L397.417 262.32Z" fill="#3F3D56"/>
<path d="M371.908 254.212C371.828 256.05 371.041 257.787 369.711 259.06C368.382 260.333 366.612 261.044 364.772 261.044C362.931 261.044 361.161 260.333 359.832 259.06C358.502 257.787 357.715 256.05 357.635 254.212C357.635 254.096 357.635 253.98 357.635 253.872C357.635 251.979 358.387 250.164 359.725 248.825C361.063 247.487 362.879 246.735 364.772 246.735C366.664 246.735 368.48 247.487 369.818 248.825C371.156 250.164 371.908 251.979 371.908 253.872C371.902 253.98 371.908 254.096 371.908 254.212Z" fill="#192534"/>
<path opacity="0.1" d="M371.908 254.212C371.828 256.051 371.041 257.788 369.711 259.06C368.382 260.333 366.612 261.044 364.772 261.044C362.931 261.044 361.161 260.333 359.832 259.06C358.502 257.788 357.715 256.051 357.635 254.212C357.635 254.096 357.635 253.981 357.635 253.872C359.648 252.224 362.17 251.324 364.772 251.324C367.373 251.324 369.895 252.224 371.908 253.872C371.902 253.981 371.908 254.096 371.908 254.212Z" fill="black"/>
<path d="M364.764 274.507C370.992 274.507 376.041 269.459 376.041 263.231C376.041 257.004 370.992 251.955 364.764 251.955C358.537 251.955 353.488 257.004 353.488 263.231C353.488 269.459 358.537 274.507 364.764 274.507Z" fill="#192534"/>
<path d="M357.934 252.635C357.935 250.905 358.564 249.234 359.704 247.933C360.844 246.631 362.418 245.788 364.133 245.559C363.123 245.423 362.095 245.503 361.119 245.797C360.143 246.09 359.241 246.588 358.474 247.259C357.707 247.929 357.092 248.756 356.67 249.684C356.249 250.612 356.031 251.619 356.031 252.638C356.031 253.657 356.249 254.665 356.67 255.592C357.092 256.52 357.707 257.347 358.474 258.018C359.241 258.688 360.143 259.187 361.119 259.48C362.095 259.773 363.123 259.854 364.133 259.717C362.417 259.488 360.842 258.644 359.702 257.341C358.562 256.039 357.933 254.366 357.934 252.635V252.635Z" fill="#192534"/>
<path d="M352.041 267.812C350.744 266.667 349.907 265.089 349.686 263.372C349.464 261.656 349.874 259.918 350.838 258.48C350.597 258.693 350.37 258.92 350.158 259.16C349.511 259.859 349.01 260.68 348.686 261.576C348.361 262.471 348.218 263.422 348.266 264.374C348.315 265.325 348.553 266.257 348.966 267.115C349.38 267.973 349.961 268.739 350.676 269.369C351.39 270 352.223 270.48 353.126 270.784C354.029 271.087 354.983 271.207 355.933 271.136C356.883 271.065 357.809 270.804 358.657 270.37C359.505 269.936 360.257 269.337 360.87 268.608C361.078 268.371 361.271 268.121 361.448 267.86C360.14 268.993 358.465 269.612 356.735 269.603C355.005 269.594 353.337 268.958 352.041 267.812V267.812Z" fill="#192534"/>
<path d="M358.865 277.532C358.278 277.647 357.71 277.847 357.18 278.123C356.242 278.803 356.276 280.162 356.554 281.27C357.193 283.799 358.756 286.225 361.149 287.258C362.63 287.804 364.209 288.036 365.784 287.938C367.491 287.938 369.421 287.707 370.481 286.361C370.959 285.651 371.285 284.851 371.44 284.009C371.963 281.97 372.493 279.863 372.303 277.756C371.27 277.844 370.114 277.906 369.299 277.253C368.483 276.601 368.299 275.357 367.939 274.324C367.9 274.158 367.807 274.009 367.674 273.902C367.525 273.835 367.36 273.811 367.198 273.834C366.113 273.881 365.027 273.835 363.949 273.698C363.27 273.61 361.625 272.91 361.122 273.501C360.755 273.929 360.986 275.234 360.7 275.839C360.522 276.229 360.268 276.579 359.953 276.87C359.638 277.16 359.268 277.385 358.865 277.532V277.532Z" fill="#FFC1C7"/>
<path opacity="0.05" d="M358.865 277.532C358.278 277.647 357.71 277.847 357.18 278.123C356.242 278.803 356.276 280.162 356.554 281.27C357.193 283.799 358.756 286.225 361.149 287.258C362.63 287.804 364.209 288.036 365.784 287.938C367.491 287.938 369.421 287.707 370.481 286.361C370.959 285.651 371.285 284.851 371.44 284.009C371.963 281.97 372.493 279.863 372.303 277.756C371.27 277.844 370.114 277.906 369.299 277.253C368.483 276.601 368.299 275.357 367.939 274.324C367.9 274.158 367.807 274.009 367.674 273.902C367.525 273.835 367.36 273.811 367.198 273.834C366.113 273.881 365.027 273.835 363.949 273.698C363.27 273.61 361.625 272.91 361.122 273.501C360.755 273.929 360.986 275.234 360.7 275.839C360.522 276.229 360.268 276.579 359.953 276.87C359.638 277.16 359.268 277.385 358.865 277.532V277.532Z" fill="black"/>
<path d="M364.608 276.56C368.963 276.56 372.493 273.03 372.493 268.675C372.493 264.321 368.963 260.791 364.608 260.791C360.254 260.791 356.724 264.321 356.724 268.675C356.724 273.03 360.254 276.56 364.608 276.56Z" fill="#FFC1C7"/>
<path d="M381.893 285.756C381.839 285.824 381.784 285.906 381.723 285.974L381.39 286.409C379.711 288.421 378.352 290.679 377.359 293.104C376.992 293.267 376.612 293.423 376.231 293.579C375.85 293.736 375.497 293.878 375.116 294.001C374.926 294.082 374.722 294.15 374.525 294.218C374.502 294.215 374.48 294.215 374.457 294.218C374.042 294.368 373.614 294.497 373.193 294.626L372.873 294.701C372.493 294.816 372.112 294.912 371.731 294.993C370.418 295.33 369.083 295.573 367.735 295.72C366.429 295.879 365.115 295.958 363.799 295.958C363.663 295.958 363.528 295.958 363.392 295.958C361.568 295.953 359.748 295.785 357.954 295.455L357.628 295.401C357.295 295.347 356.948 295.279 356.629 295.197L355.997 295.054C355.326 294.907 354.664 294.726 354.012 294.511C354.194 293.371 354.701 292.309 355.473 291.452C353.944 289.624 351.429 288.903 349.805 287.177C349.663 287.012 349.531 286.84 349.41 286.66C349.325 286.53 349.255 286.391 349.2 286.246C349.151 286.131 349.121 286.009 349.111 285.885C349.06 285.635 349.039 285.379 349.05 285.124C349.009 283.194 349.098 280.991 350.593 279.782C351.327 279.267 352.153 278.898 353.026 278.694C354.544 278.219 356.021 277.624 357.444 276.913C357.575 277.217 357.661 277.537 357.703 277.865C357.839 278.653 357.825 279.483 358.008 280.264C358.365 281.658 359.227 282.87 360.428 283.663C361.626 284.447 362.989 284.943 364.411 285.11C365.811 285.314 366.926 284.587 368.245 284.091C368.829 283.904 369.368 283.599 369.828 283.194C370.424 282.507 370.741 281.622 370.719 280.713C370.719 279.816 370.617 278.918 370.671 277.994C370.672 277.9 370.684 277.807 370.705 277.715C370.707 277.479 370.783 277.249 370.922 277.058C371.061 276.866 371.256 276.723 371.48 276.648C371.735 276.627 371.99 276.674 372.221 276.784L374.763 277.756C375.864 278.137 376.925 278.627 377.93 279.217C379.041 279.939 379.974 280.901 380.66 282.033C381.346 283.166 381.768 284.438 381.893 285.756V285.756Z" fill="#7EC845"/>
<path opacity="0.1" d="M357.92 295.462L357.594 295.408C357.261 295.353 356.914 295.285 356.595 295.204L355.962 295.061C355.292 294.914 354.629 294.733 353.978 294.517C352.65 294.119 351.349 293.636 350.083 293.07C349.446 290.999 349.216 288.825 349.403 286.667C349.486 285.741 349.678 284.829 349.974 283.948C351.402 285.308 353.835 284.539 355.453 285.627C355.891 285.937 356.25 286.347 356.499 286.823C356.952 287.694 357.26 288.633 357.41 289.603C357.512 290.133 357.607 290.67 357.689 291.207C357.689 291.302 357.689 291.377 357.689 291.459C357.689 291.54 357.689 291.629 357.689 291.717C357.743 292.098 357.791 292.492 357.811 292.879C357.92 293.756 357.92 294.599 357.92 295.462Z" fill="black"/>
<path d="M357.594 295.408C357.261 295.353 356.914 295.286 356.595 295.204L355.963 295.061C355.292 294.914 354.63 294.733 353.978 294.517C352.65 294.119 351.349 293.636 350.084 293.07L349.941 293.009C349.16 290.723 348.866 288.299 349.078 285.892C349.175 285.023 349.362 284.167 349.635 283.336C351.062 284.696 353.496 283.941 355.113 285.029C355.736 285.477 356.21 286.102 356.473 286.823C356.737 287.521 356.935 288.243 357.064 288.978C357.214 289.773 357.356 290.568 357.451 291.377C357.473 291.489 357.484 291.603 357.485 291.717C357.485 291.792 357.485 291.887 357.485 291.962C357.485 292.037 357.485 292.152 357.485 292.254C357.615 293.294 357.608 294.354 357.594 295.408Z" fill="#7EC845"/>
<path opacity="0.1" d="M381.2 291.112C379.962 291.855 378.679 292.52 377.359 293.104C376.992 293.267 376.612 293.423 376.231 293.58C375.85 293.736 375.497 293.879 375.116 294.001C374.926 294.082 374.722 294.15 374.525 294.218C374.502 294.215 374.48 294.215 374.457 294.218C374.042 294.368 373.614 294.497 373.193 294.626L372.873 294.701C372.873 294.096 372.873 293.471 372.941 292.859C372.989 292.376 373.043 291.894 373.111 291.411C373.111 291.323 373.111 291.235 373.145 291.146C373.152 291.09 373.152 291.033 373.145 290.976C373.227 290.514 373.315 290.045 373.403 289.583C373.544 288.611 373.853 287.67 374.314 286.803C374.569 286.336 374.93 285.936 375.368 285.634C376.985 284.546 379.446 285.287 380.805 283.955C381.073 284.745 381.257 285.56 381.356 286.388C381.54 287.962 381.487 289.554 381.2 291.112V291.112Z" fill="black"/>
<path d="M381.397 290.977L381.2 291.112C379.962 291.855 378.68 292.521 377.36 293.104C376.993 293.267 376.612 293.423 376.231 293.58C375.851 293.736 375.497 293.879 375.117 294.001C374.926 294.083 374.722 294.151 374.525 294.219C374.503 294.216 374.48 294.216 374.457 294.219C374.043 294.368 373.615 294.497 373.193 294.627C373.193 293.824 373.193 293.029 373.261 292.234C373.261 292.03 373.261 291.819 373.315 291.615C373.315 291.527 373.315 291.425 373.315 291.337C373.315 291.248 373.315 291.187 373.315 291.126C373.417 290.392 373.54 289.678 373.689 288.958C373.818 288.223 374.016 287.501 374.281 286.803C374.543 286.082 375.017 285.457 375.64 285.009C377.258 283.921 379.718 284.662 381.078 283.316C381.37 284.17 381.561 285.055 381.649 285.954C381.831 287.631 381.746 289.326 381.397 290.977V290.977Z" fill="#7EC845"/>
<path d="M364.452 267.568C369.677 267.568 373.913 264.744 373.913 261.26C373.913 257.777 369.677 254.953 364.452 254.953C359.227 254.953 354.991 257.777 354.991 261.26C354.991 264.744 359.227 267.568 364.452 267.568Z" fill="#192534"/>
<path opacity="0.05" d="M356.588 294.252C356.588 294.395 356.588 294.545 356.588 294.701C356.588 294.857 356.588 295 356.588 295.15C356.585 295.168 356.585 295.186 356.588 295.204V295.204L355.956 295.061C355.945 294.941 355.945 294.821 355.956 294.701C355.955 294.071 356.09 293.448 356.351 292.874C356.613 292.301 356.995 291.79 357.471 291.377C357.534 291.312 357.604 291.254 357.682 291.207C358.047 290.911 358.461 290.681 358.905 290.528C359.313 290.37 359.746 290.287 360.183 290.283C360.242 290.276 360.301 290.276 360.36 290.283C360.469 290.276 360.578 290.276 360.686 290.283H360.462C359.421 290.393 358.455 290.876 357.743 291.642C357.664 291.716 357.593 291.798 357.532 291.887C356.989 292.564 356.66 293.387 356.588 294.252V294.252Z" fill="black"/>
<path d="M363.507 294.701C363.507 295.127 363.456 295.551 363.358 295.965C361.534 295.96 359.714 295.792 357.92 295.462L357.594 295.408C357.261 295.354 356.914 295.286 356.595 295.204V295.15C356.595 295 356.595 294.858 356.595 294.701C356.595 294.545 356.595 294.395 356.595 294.253C356.652 293.34 356.963 292.463 357.492 291.717C357.553 291.624 357.623 291.537 357.703 291.459C358.02 291.064 358.428 290.751 358.892 290.548C359.249 290.378 359.639 290.29 360.034 290.29C360.079 290.283 360.125 290.283 360.17 290.29C360.263 290.283 360.356 290.283 360.449 290.29C362.168 290.582 363.507 292.445 363.507 294.701Z" fill="#7EC845"/>
<path opacity="0.05" d="M375.116 294.001C374.926 294.083 374.722 294.151 374.525 294.219C374.428 293.245 374.001 292.334 373.315 291.636L373.111 291.432C372.432 290.823 371.583 290.436 370.678 290.324H370.454C370.558 290.317 370.662 290.317 370.766 290.324C370.827 290.317 370.889 290.317 370.95 290.324C371.389 290.334 371.823 290.417 372.234 290.569C372.561 290.681 372.874 290.831 373.166 291.017C373.241 291.056 373.31 291.106 373.37 291.167C373.833 291.5 374.226 291.923 374.526 292.409C374.826 292.896 375.027 293.437 375.116 294.001V294.001Z" fill="black"/>
<path d="M374.525 294.219C374.502 294.216 374.48 294.216 374.457 294.219C374.042 294.368 373.614 294.497 373.193 294.626L372.873 294.701C372.493 294.817 372.112 294.912 371.731 294.993C370.418 295.33 369.082 295.573 367.735 295.721V295.721C367.666 295.378 367.632 295.03 367.633 294.681C367.633 292.424 368.992 290.562 370.698 290.304C370.789 290.297 370.88 290.297 370.97 290.304C371.013 290.297 371.056 290.297 371.099 290.304C371.499 290.302 371.894 290.39 372.255 290.562C372.593 290.712 372.901 290.921 373.166 291.18C373.24 291.236 373.308 291.3 373.369 291.371C374.051 292.171 374.457 293.17 374.525 294.219Z" fill="#7EC845"/>
<path opacity="0.1" d="M364.452 266.943C359.382 266.943 355.242 264.292 354.997 260.955C354.997 261.056 354.997 261.158 354.997 261.267C354.997 264.754 359.239 267.575 364.466 267.575C369.692 267.575 373.927 264.754 373.927 261.267C373.927 261.158 373.927 261.056 373.927 260.955C373.655 264.292 369.516 266.943 364.452 266.943Z" fill="black"/>
<path d="M330.107 78.9732C330.095 84.5997 331.498 90.1389 334.185 95.082C334.491 95.6325 334.804 96.1831 335.151 96.72C335.19 96.8013 335.24 96.8768 335.3 96.9443C335.675 97.5455 336.081 98.1263 336.517 98.6844C337.928 100.648 339.556 102.447 341.37 104.047C341.706 104.37 342.06 104.674 342.43 104.958C343.594 105.931 344.83 106.815 346.128 107.602L346.332 107.738C347.569 108.479 348.849 109.146 350.165 109.736L351.3 110.205C351.674 110.362 352.027 110.511 352.415 110.633C352.605 110.708 352.802 110.776 353.006 110.844H353.101C353.514 110.994 353.935 111.13 354.366 111.252L354.678 111.327C355.059 111.442 355.446 111.544 355.827 111.619C356.343 111.755 356.853 111.87 357.383 111.966C358.179 112.122 359.001 112.258 359.817 112.353C361.123 112.509 362.437 112.586 363.752 112.584H364.153C365.977 112.573 367.796 112.402 369.591 112.074C369.701 112.063 369.809 112.045 369.917 112.02C370.25 111.966 370.597 111.898 370.916 111.816C371.134 111.775 371.331 111.728 371.548 111.673C372.228 111.524 372.908 111.347 373.533 111.136C373.934 111.007 374.328 110.885 374.722 110.749C375.518 110.47 376.313 110.171 377.074 109.831C377.193 109.792 377.309 109.744 377.421 109.689L377.57 109.621C378.576 109.168 379.555 108.662 380.507 108.105C381.315 107.643 382.104 107.14 382.865 106.61H382.913C383.037 106.537 383.155 106.456 383.266 106.365C387.97 103.018 391.735 98.5176 394.197 93.2957C396.659 88.0738 397.736 82.3063 397.325 76.5477C396.914 70.7891 395.028 65.2332 391.849 60.414C388.67 55.5948 384.305 51.6746 379.173 49.0302C374.041 46.3857 368.315 45.1061 362.545 45.3143C356.776 45.5225 351.157 47.2115 346.229 50.2189C341.301 53.2263 337.229 57.451 334.406 62.4868C331.583 67.5225 330.102 73.2 330.107 78.9732V78.9732Z" fill="#3F3D56"/>
<path d="M371.235 92.3087C371.732 92.7456 372.077 93.3287 372.221 93.974C371.242 94.2323 370.243 93.7497 369.332 93.2943C366.504 91.9678 363.519 91.0063 360.449 90.4328C360.203 90.41 359.968 90.3207 359.769 90.1745C359.615 89.9664 359.535 89.7126 359.542 89.4538C359.55 89.1949 359.644 88.9461 359.81 88.7471C360.149 88.3937 360.788 88.4413 361.251 88.4209C363.093 88.3267 364.934 88.6218 366.654 89.287C368.375 89.9522 369.936 90.9726 371.235 92.2815V92.3087Z" fill="#7EC845"/>
<path d="M361.291 89.6036C361.088 90.1127 360.784 90.5756 360.397 90.9645C360.01 91.3534 359.549 91.6603 359.041 91.867C358.491 92.0641 357.9 92.0981 357.342 92.2544C357.057 92.3139 356.789 92.4387 356.561 92.6192C356.332 92.7996 356.148 93.0308 356.024 93.2943C355.949 93.5316 355.914 93.7797 355.922 94.0284C355.833 96.3733 355.765 98.7863 356.703 100.961C357.512 102.824 358.994 104.292 360.462 105.685C362.175 107.323 363.99 108.982 366.246 109.716C367.565 110.144 369.121 110.192 370.216 109.342C370.645 108.969 371.018 108.537 371.324 108.057C372.087 107.058 372.726 105.969 373.227 104.815C374.158 102.423 373.845 99.7446 373.519 97.1958C373.517 97.0443 373.459 96.899 373.356 96.7879C373.214 96.6996 373.043 96.6703 372.88 96.7064C372.296 96.7657 371.709 96.6402 371.2 96.3474C370.691 96.0547 370.288 95.6097 370.046 95.0751C369.905 94.5899 369.852 94.0836 369.889 93.5798L369.937 90.6707C369.96 90.3585 369.923 90.0448 369.828 89.7463C369.561 89.2615 369.13 88.8879 368.612 88.6928C367.023 87.8976 365.367 87.2448 363.663 86.7421C362.916 86.5246 362.345 86.1575 362.012 86.9596C361.679 87.7616 361.679 88.7608 361.291 89.6036Z" fill="#FBBEBE"/>
<path opacity="0.1" d="M361.291 89.6036C361.088 90.1127 360.784 90.5756 360.397 90.9645C360.01 91.3534 359.549 91.6603 359.041 91.867C358.491 92.0641 357.9 92.0981 357.342 92.2544C357.057 92.3139 356.789 92.4387 356.561 92.6192C356.332 92.7996 356.148 93.0308 356.024 93.2943C355.949 93.5316 355.914 93.7797 355.922 94.0284C355.833 96.3733 355.765 98.7863 356.703 100.961C357.512 102.824 358.994 104.292 360.462 105.685C362.175 107.323 363.99 108.982 366.246 109.716C367.565 110.144 369.121 110.192 370.216 109.342C370.645 108.969 371.018 108.537 371.324 108.057C372.087 107.058 372.726 105.969 373.227 104.815C374.158 102.423 373.845 99.7446 373.519 97.1958C373.517 97.0443 373.459 96.899 373.356 96.7879C373.214 96.6996 373.043 96.6703 372.88 96.7064C372.296 96.7657 371.709 96.6402 371.2 96.3474C370.691 96.0547 370.288 95.6097 370.046 95.0751C369.905 94.5899 369.852 94.0836 369.889 93.5798L369.937 90.6707C369.96 90.3585 369.923 90.0448 369.828 89.7463C369.561 89.2615 369.13 88.8879 368.612 88.6928C367.023 87.8976 365.367 87.2448 363.663 86.7421C362.916 86.5246 362.345 86.1575 362.012 86.9596C361.679 87.7616 361.679 88.7608 361.291 89.6036Z" fill="black"/>
<path d="M369.162 91.962C374.065 91.962 378.039 87.9878 378.039 83.0852C378.039 78.1827 374.065 74.2084 369.162 74.2084C364.26 74.2084 360.285 78.1827 360.285 83.0852C360.285 87.9878 364.26 91.962 369.162 91.962Z" fill="#FBBEBE"/>
<path d="M357.369 112.006C358.165 112.163 358.987 112.299 359.803 112.394C361.109 112.55 362.423 112.627 363.738 112.625H364.139C365.963 112.614 367.782 112.443 369.577 112.115C369.687 112.104 369.795 112.086 369.903 112.061C370.236 112.006 370.583 111.938 370.902 111.857C371.12 111.816 371.317 111.768 371.534 111.714C372.214 111.564 372.894 111.388 373.519 111.177C373.92 111.048 374.314 110.926 374.708 110.79C375.504 110.511 376.299 110.212 377.06 109.872C376.864 109.268 376.703 108.653 376.578 108.03C376.358 106.701 376.272 105.353 376.319 104.006C376.319 102.926 376.367 101.852 376.319 100.778C376.336 99.9066 376.21 99.0386 375.945 98.2084C375.811 97.7937 375.594 97.4101 375.31 97.0798C375.025 96.7496 374.677 96.4793 374.287 96.2849C373.274 95.8363 371.752 95.6052 370.753 96.1082C370.638 96.1696 370.529 96.24 370.426 96.3189C370.209 96.5009 370.041 96.7346 369.937 96.9986C369.611 97.8142 369.257 98.6367 368.945 99.4523C368.743 100.021 368.476 100.563 368.149 101.07C367.656 101.736 366.968 102.233 366.181 102.493C365.393 102.752 364.544 102.761 363.752 102.518C363.652 102.485 363.554 102.447 363.459 102.402C362.1 101.852 360.856 100.662 359.436 100.982C359.043 101.086 358.679 101.279 358.371 101.545C358.064 101.811 357.821 102.144 357.662 102.518C357.642 102.557 357.626 102.598 357.614 102.64C357.328 103.351 357.163 104.104 357.125 104.869C356.919 107.25 357.001 109.646 357.369 112.006V112.006Z" fill="#F2F2F2"/>
<path d="M341.37 104.067C341.706 104.39 342.06 104.694 342.43 104.978C343.594 105.951 344.83 106.835 346.128 107.622L346.331 107.758C347.569 108.499 348.849 109.166 350.165 109.756L351.3 110.225C351.674 110.382 352.027 110.531 352.415 110.653C352.605 110.728 352.802 110.796 353.006 110.864H353.101C353.514 111.014 353.935 111.15 354.365 111.272L354.678 111.347C355.059 111.462 355.446 111.564 355.827 111.639C356.343 111.775 356.853 111.891 357.383 111.986C358.179 112.142 359.001 112.278 359.817 112.373C361.123 112.529 362.437 112.606 363.752 112.604H364.153C365.977 112.593 367.796 112.422 369.591 112.094C369.7 112.083 369.809 112.065 369.917 112.04C370.25 111.986 370.597 111.918 370.916 111.836C371.134 111.795 371.331 111.748 371.548 111.693C372.228 111.544 372.908 111.367 373.533 111.156C373.934 111.027 374.328 110.905 374.722 110.769C375.518 110.49 376.313 110.191 377.074 109.851C377.193 109.812 377.309 109.764 377.421 109.709L377.57 109.641C378.576 109.188 379.555 108.682 380.506 108.125C381.174 106.346 381.741 104.53 382.206 102.687C382.203 102.651 382.203 102.615 382.206 102.579C381.145 100.696 380.207 98.7384 379.154 96.8557C378.854 96.1468 378.373 95.5297 377.758 95.0666C377.143 94.6035 376.417 94.3109 375.653 94.2185C374.917 93.9756 374.151 93.8338 373.377 93.7971C372.936 93.7561 372.5 93.6811 372.071 93.5728C371.188 93.3757 370.209 93.1853 369.883 93.5728C369.869 93.583 369.857 93.5962 369.849 93.6115C369.841 93.6268 369.836 93.6438 369.835 93.6611C369.713 94.1177 369.769 94.6036 369.992 95.0205C370.141 95.4487 370.338 95.8973 370.44 96.2644C370.501 96.4395 370.535 96.6228 370.542 96.8081C370.566 97.6043 370.539 98.4012 370.461 99.1938C370.27 100.349 369.631 101.369 369.332 102.49C369.196 103.021 369.128 103.571 369.04 104.108C368.851 105.321 368.534 106.51 368.095 107.656C368.016 107.899 367.899 108.129 367.749 108.336C367.191 109.015 366.267 108.757 365.39 108.628C364.751 108.084 364.785 107.119 364.71 106.303C364.523 104.933 364.105 103.605 363.473 102.375L363.242 101.885C362.563 100.478 361.883 99.0783 361.244 97.6645C360.422 95.9109 359.572 93.9058 360.252 92.091C360.449 91.5473 360.768 91.0647 360.986 90.5413C361.021 90.4644 361.051 90.3848 361.074 90.3034C361.137 90.103 361.171 89.8948 361.176 89.6849C361.2 89.4972 361.185 89.3066 361.131 89.1251C361.077 88.9437 360.986 88.7756 360.863 88.6314C360.827 88.5759 360.781 88.5276 360.727 88.4887C360.705 88.4646 360.677 88.446 360.646 88.4343C360.422 88.3056 360.171 88.2323 359.913 88.2204C359.655 88.2086 359.399 88.2586 359.164 88.3663C358.896 88.4638 358.635 88.5796 358.382 88.7129C357.048 89.4647 355.761 90.2978 354.529 91.2074C354.167 91.4222 353.885 91.7491 353.727 92.1386C353.698 92.3968 353.655 92.6533 353.597 92.9067C353.407 93.3892 352.829 93.532 352.333 93.6407C350.281 94.1145 348.348 95.0021 346.651 96.2491C344.954 97.4961 343.529 99.0764 342.464 100.893C342.104 101.477 341.82 102.105 341.621 102.762C341.5 103.189 341.416 103.626 341.37 104.067V104.067Z" fill="#7EC845"/>
<path d="M373.071 78.0757C371.868 79.3059 369.944 79.3535 368.225 79.3263L368.279 78.6466L365.866 79.5099C366.493 79.0449 367.03 78.469 367.45 77.8106C367.282 77.6857 367.082 77.6122 366.873 77.5989C366.664 77.5856 366.456 77.6332 366.274 77.7359C365.912 77.9461 365.61 78.2456 365.397 78.6059C364.712 79.6323 364.275 80.8047 364.123 82.0296C363.971 83.2545 364.107 84.498 364.52 85.6611C364.275 85.7819 364.002 85.836 363.728 85.8181C363.455 85.8002 363.192 85.7109 362.964 85.5591C362.511 85.2484 362.162 84.8076 361.965 84.2949C361.822 83.9686 361.672 83.6152 361.333 83.4861C361.186 83.4502 361.032 83.464 360.894 83.5256C360.756 83.5871 360.642 83.6928 360.571 83.8259C360.428 84.0897 360.371 84.3914 360.408 84.6891C360.456 85.3688 360.966 86.0485 361.088 86.7282C361.21 87.4079 362.216 87.9517 361.686 88.4071C361.065 88.6408 360.416 88.7939 359.756 88.8624C359.625 88.8232 359.506 88.7525 359.409 88.6565C359.311 88.5605 359.239 88.4422 359.198 88.3119C358.661 87.1292 358.852 85.7494 358.519 84.492C358.21 83.4939 357.737 82.5543 357.118 81.7121C356.97 81.4547 356.792 81.2152 356.588 80.9984C356.374 80.842 356.198 80.64 356.072 80.407C355.983 80.1624 356.153 79.8021 356.412 79.8497C355.99 79.4412 355.535 79.0684 355.052 78.735C355.528 78.1369 355.99 77.5252 356.412 76.9134C356.568 76.6959 356.731 76.4308 356.615 76.193C356.55 76.0821 356.456 75.9906 356.344 75.9279L355.141 75.1122C355.141 74.5413 356.276 74.752 356.452 74.215C356.496 74.0734 356.496 73.9217 356.452 73.78L356.031 72.2439L357.635 72.9712C357.82 73.0779 358.033 73.1276 358.247 73.1139C358.668 73.0528 358.872 72.5566 358.926 72.1284C358.883 71.7 358.939 71.2674 359.09 70.8642C359.817 70.8642 360.544 70.8642 361.265 70.8642C361.312 70.5007 361.217 70.1329 361 69.8378L366.356 69.5387C367.266 69.4351 368.187 69.4996 369.074 69.7291C369.357 69.8624 369.666 69.932 369.978 69.933C370.284 69.933 370.597 69.6135 370.508 69.3145C371.312 69.7678 372.046 70.3331 372.69 70.9933C372.862 71.2014 373.072 71.3744 373.309 71.5031C373.429 71.5651 373.565 71.5899 373.7 71.5741C373.834 71.5584 373.961 71.5029 374.063 71.4147C374.213 71.2584 374.281 70.9797 374.498 70.9661C374.716 70.9525 374.743 71.0749 374.825 71.1768C375.131 71.5703 375.38 72.0051 375.565 72.4682C375.95 72.4159 376.327 72.3154 376.687 72.1692C376.519 72.3483 376.41 72.5743 376.373 72.8171C376.337 73.0599 376.375 73.308 376.483 73.5285C376.66 73.9839 376.986 74.3714 377.203 74.8064C377.418 75.2768 377.562 75.776 377.632 76.2881C377.74 76.927 377.74 77.7359 377.176 78.0485C376.909 78.1408 376.62 78.1566 376.344 78.0942C376.068 78.0317 375.815 77.8935 375.613 77.6951C374.315 76.7707 374.077 77.0426 373.071 78.0757Z" fill="#192534"/>
<path d="M342.43 104.978C343.594 105.951 344.83 106.835 346.127 107.622L346.331 107.758C347.568 108.499 348.848 109.167 350.165 109.756L351.3 110.225C351.674 110.382 352.027 110.531 352.414 110.654C352.605 110.728 352.802 110.796 353.006 110.864C352.768 110.185 352.611 109.505 352.401 108.825C351.84 107.01 350.838 105.361 349.485 104.027C348.316 102.858 346.453 101.151 344.727 102.185C344.201 102.539 343.741 102.983 343.368 103.496C343.036 103.875 342.753 104.292 342.525 104.74C342.491 104.801 342.464 104.883 342.43 104.978Z" fill="#7EC845"/>
<path d="M374.749 110.783C375.545 110.504 376.34 110.205 377.101 109.865C377.22 109.826 377.336 109.778 377.448 109.722L377.597 109.654C378.603 109.201 379.582 108.696 380.534 108.139C381.342 107.676 382.131 107.173 382.892 106.643H382.94C382.879 105.885 382.879 105.124 382.94 104.366C382.979 104.112 382.963 103.852 382.892 103.605C382.798 103.409 382.669 103.232 382.512 103.082C382.412 102.982 382.318 102.875 382.233 102.762C381.465 101.899 380.84 100.968 379.514 101.104C378.189 101.24 377.047 102.382 376.489 103.653C376.429 103.775 376.379 103.902 376.34 104.033C375.961 105.214 375.666 106.42 375.456 107.642C375.28 108.397 375.055 109.124 374.892 109.879C374.851 110.157 374.79 110.47 374.749 110.783Z" fill="#7EC845"/>
<path d="M221.533 311.041L221.234 311.204L221.533 311.041Z" fill="url(#paint0_linear_1_498)"/>
<path d="M179.779 274.331C177.155 281.889 180.221 294.158 181.641 299.629C182.583 303.588 183.206 307.615 183.504 311.673C186.701 312.217 189.973 312.143 193.142 311.456L190.845 300.18C192.483 293.498 190.845 275.65 190.845 275.65C190.845 275.65 194.562 268.751 194.923 258.236C195.242 247.891 197.791 244.547 197.873 244.438C203.127 247.157 209.808 276.526 209.808 276.526C209.257 283.643 209.917 294.593 212.105 300.506C213.433 304.262 213.992 308.247 213.75 312.224C214.175 312.529 214.662 312.738 215.176 312.837C215.69 312.936 216.219 312.921 216.727 312.795C219.854 312.292 223.606 309.593 223.606 309.593C223.606 309.593 222.403 277.648 221.526 276.418C220.649 275.187 221.526 268.316 221.526 268.316L220.099 257.141C220.099 257.141 220.316 238.198 218.236 234.915C216.442 232.074 216.027 227.092 215.946 225.78C215.946 225.576 215.946 225.461 215.946 225.461L212.778 221.661C212.778 221.661 182.117 219.364 179.813 221.661C179.249 222.226 178.902 223.51 178.692 225.128C178.059 230.096 178.787 238.198 178.787 238.198C178.787 238.198 179.704 244.22 181.023 250.351C181.811 254.034 181.811 257.843 181.023 261.526C181.442 265.834 181.019 270.183 179.779 274.331Z" fill="#575A89"/>
<path d="M181.669 322.351C183.028 324.159 191.089 323.391 192.455 322.827C193.291 322.487 193.23 320.91 193.006 319.292C192.863 318.259 192.652 317.206 192.564 316.438C192.347 314.467 193.244 310.47 193.244 310.47C193.244 310.47 191.436 312.387 191.001 310.47C190.899 310.105 190.7 309.774 190.424 309.513C190.149 309.252 189.808 309.07 189.437 308.988C188.5 308.704 187.491 308.767 186.596 309.165C185.169 309.777 182.797 311.095 183.198 312.876C183.796 315.391 181.662 318.993 181.662 318.993C181.276 319.476 181.065 320.075 181.065 320.693C181.065 321.31 181.276 321.91 181.662 322.392L181.669 322.351Z" fill="#CBCEDA"/>
<path opacity="0.1" d="M181.669 322.351C183.028 324.159 191.089 323.391 192.455 322.827C193.291 322.487 193.23 320.91 193.006 319.292C192.143 319.693 190.668 320.033 188.248 319.802C187.676 319.75 187.102 319.732 186.528 319.748C184.786 319.83 183.04 319.796 181.302 319.646C181.107 320.087 181.038 320.573 181.103 321.05C181.168 321.528 181.364 321.978 181.669 322.351V322.351Z" fill="black"/>
<path opacity="0.1" d="M209.76 276.526C209.21 283.642 209.869 294.592 212.058 300.506C213.385 304.262 213.944 308.247 213.702 312.224C214.128 312.529 214.614 312.738 215.128 312.837C215.642 312.935 216.172 312.921 216.679 312.795C216 308.179 213.206 288.278 211.398 272.557C210.09 261.668 206.083 251.278 199.742 242.331L197.825 244.438C203.079 247.177 209.76 276.526 209.76 276.526Z" fill="black"/>
<path d="M184.958 161.434L186.318 168.006L192.87 179.01L200.945 175.564C200.945 175.564 211.922 164.064 205.023 162.419C204.196 162.246 203.415 161.898 202.732 161.4C202.141 160.929 201.67 160.323 201.36 159.634C201.049 158.945 200.907 158.192 200.945 157.437C200.998 155.807 201.38 154.205 202.066 152.727L187.935 148.302C188.514 150.159 188.854 152.082 188.948 154.025C189.057 157.872 187.623 159.768 186.454 160.672C186.011 161.023 185.502 161.281 184.958 161.434V161.434Z" fill="#FBBEBE"/>
<path opacity="0.1" d="M187.936 148.302C188.514 150.159 188.854 152.082 188.948 154.025C189.203 154.333 189.478 154.623 189.771 154.895C191.837 156.877 194.588 157.984 197.451 157.988C198.624 157.99 199.79 157.804 200.904 157.437C200.957 155.807 201.339 154.205 202.026 152.727L187.936 148.302Z" fill="black"/>
<path d="M186.291 146.487C186.289 148.698 186.944 150.86 188.171 152.699C189.399 154.537 191.145 155.971 193.187 156.817C195.23 157.663 197.477 157.885 199.646 157.453C201.814 157.022 203.806 155.957 205.369 154.393C206.931 152.829 207.995 150.837 208.425 148.668C208.856 146.5 208.633 144.252 207.785 142.21C206.937 140.168 205.503 138.423 203.664 137.197C201.824 135.97 199.662 135.317 197.451 135.32C195.983 135.314 194.529 135.598 193.171 136.157C191.814 136.716 190.581 137.539 189.543 138.577C188.505 139.615 187.684 140.849 187.125 142.207C186.567 143.564 186.283 145.019 186.291 146.487V146.487Z" fill="#FBBEBE"/>
<path opacity="0.1" d="M184.958 161.434L186.318 168.006L192.87 179.01L200.945 175.564C200.945 175.564 211.922 164.064 205.023 162.419C204.196 162.245 203.415 161.898 202.732 161.4C203.976 164.798 198.838 171.948 198.838 171.948C198.24 172.825 196.867 172.275 196.867 172.275C193.55 171.772 187.453 162.249 186.461 160.665C186.016 161.019 185.505 161.28 184.958 161.434V161.434Z" fill="black"/>
<path opacity="0.1" d="M178.631 225.107C180.575 225.549 191.334 227.935 195.412 227.337C199.905 226.657 208.632 226.242 208.632 226.242C208.632 226.242 214.192 226.541 215.898 225.76C215.898 225.556 215.898 225.44 215.898 225.44L212.731 221.641C212.731 221.641 182.07 219.343 179.766 221.641C179.188 222.225 178.841 223.51 178.631 225.107Z" fill="black"/>
<path d="M198.811 172.275C198.811 172.275 204.588 164.275 202.406 161.155L212.167 165.158C212.167 165.158 218.039 164.445 220.16 173.213C220.499 174.671 220.623 176.171 220.527 177.665C220.469 179.985 221.022 182.28 222.131 184.319C224.544 189.138 223.993 200.196 219.065 201.311C214.138 202.426 212.384 201.855 212.384 201.855C212.384 201.855 213.064 221.892 215.891 224.196C218.719 226.501 208.632 225.95 208.632 225.95C208.632 225.95 199.905 226.385 195.412 227.044C190.919 227.704 178.331 224.74 178.331 224.74C178.331 224.74 180.194 216.312 180.846 210.942C181.499 205.573 183.042 194.154 183.042 194.154L171.868 179.024C171.868 179.024 169.896 169.882 176.795 165.831C183.694 161.78 186.311 160.781 186.311 160.781C186.311 160.781 193.244 172.071 196.86 172.621C196.839 172.608 198.212 173.158 198.811 172.275Z" fill="#3F3D56"/>
<path opacity="0.1" d="M211.622 175.449C211.622 175.449 211.731 179.065 211.072 180.492C210.413 181.92 208.006 189.797 208.006 189.797H213.478C213.478 189.797 210.521 186.623 210.759 185.087C210.997 183.551 211.622 175.449 211.622 175.449Z" fill="black"/>
<path d="M195.412 202.718C195.412 202.718 207.504 199.761 208.632 197.24C209.76 194.718 212.866 189.083 212.866 189.083L211.589 187.364L205.709 191.979C205.709 191.979 198.702 197.566 195.412 198.096C192.122 198.626 195.412 202.718 195.412 202.718Z" fill="#FBBEBE"/>
<path opacity="0.05" d="M195.412 202.718C195.412 202.718 207.504 199.761 208.632 197.24C209.76 194.718 212.866 189.083 212.866 189.083L211.589 187.364L205.709 191.979C205.709 191.979 198.702 197.566 195.412 198.096C192.122 198.626 195.412 202.718 195.412 202.718Z" fill="black"/>
<path d="M184.958 188.485V195.045H186.012C191.221 195.044 196.343 196.371 200.897 198.898L202.875 199.993L203.405 200.292L206.804 192.645L203.63 189.797H203.467C202.685 189.872 199.327 190.158 197.907 189.675C196.486 189.192 194.875 187.758 190.885 188.778C188.928 189.281 187.249 191.497 185.346 190.817L184.958 188.485Z" fill="#FBBEBE"/>
<path opacity="0.1" d="M174.389 176.55L172.201 179.01V185.005C172.201 185.005 174.063 203.84 179.976 205.919C185.89 207.999 196.445 204.716 196.445 204.716C196.445 204.716 199.164 197.491 197.893 197.049C196.622 196.608 186.624 193.97 186.624 193.97C186.624 193.97 186.76 182.925 184.585 179.642C184.585 179.642 186.012 169.345 181.084 169.128C176.156 168.91 174.389 176.55 174.389 176.55Z" fill="black"/>
<path d="M174.063 176.55L171.867 179.01V185.005C171.867 185.005 173.73 203.84 179.643 205.919C185.556 207.999 196.092 204.716 196.092 204.716C196.092 204.716 198.811 197.491 197.546 197.049C196.282 196.608 186.27 193.97 186.27 193.97C186.27 193.97 186.413 182.925 184.231 179.642C184.231 179.642 185.652 169.345 180.724 169.128C175.796 168.91 174.063 176.55 174.063 176.55Z" fill="#3F3D56"/>
<path opacity="0.1" d="M189.356 151.231C189.26 150.512 189.347 149.781 189.608 149.104C189.746 148.771 189.99 148.492 190.301 148.31C190.613 148.129 190.976 148.054 191.334 148.098C192.272 148.315 192.693 149.539 193.597 149.831C193.996 149.911 194.409 149.853 194.77 149.666C195.131 149.48 195.417 149.176 195.582 148.805C195.896 148.051 196.027 147.233 195.963 146.419C195.963 145.508 195.963 144.591 195.963 143.7C195.963 142.81 195.997 141.627 196.608 140.846C197.376 139.874 199.171 139.445 200.367 139.486C201.164 139.492 201.93 139.801 202.508 140.349C202.801 140.642 203.156 140.866 203.546 141.005C203.936 141.144 204.353 141.194 204.765 141.151C205.129 141.096 205.47 140.939 205.749 140.699C206.028 140.458 206.233 140.144 206.342 139.792C206.338 139.781 206.338 139.769 206.342 139.758C205.41 138.53 204.234 137.509 202.888 136.758C201.543 136.007 200.056 135.542 198.522 135.394C196.988 135.246 195.44 135.416 193.975 135.895C192.51 136.374 191.161 137.151 190.011 138.177C188.861 139.203 187.936 140.456 187.294 141.858C186.652 143.259 186.307 144.777 186.28 146.318C186.254 147.859 186.547 149.389 187.141 150.811C187.734 152.233 188.616 153.517 189.73 154.582C189.54 153.474 189.415 152.355 189.356 151.231V151.231Z" fill="black"/>
<path d="M204.778 140.825C205.142 140.768 205.482 140.611 205.761 140.371C206.039 140.13 206.245 139.817 206.355 139.466C206.443 139.112 206.423 138.732 206.525 138.385C206.783 137.522 207.701 137.073 208.313 136.421C209.55 135.109 209.468 132.954 208.591 131.384C207.912 130.113 206.552 129.046 205.091 129.291C204.207 129.447 203.439 130.079 202.542 130.133C201.677 130.073 200.839 129.803 200.102 129.345C198.202 128.485 196.067 128.295 194.046 128.808C193.424 128.932 192.848 129.223 192.381 129.651C192.063 130.049 191.768 130.464 191.497 130.895C190.471 132.2 188.642 132.451 187.018 132.743C185.393 133.036 183.551 133.681 183.014 135.252C182.661 136.285 183.014 137.413 183.205 138.494C183.277 138.717 183.263 138.96 183.164 139.173C182.912 139.595 182.273 139.418 181.804 139.52C180.887 139.71 180.649 140.879 180.615 141.845C180.574 142.925 180.547 144.006 180.527 145.087C180.469 145.589 180.532 146.098 180.71 146.57C180.889 147.043 181.178 147.467 181.553 147.805L185.169 152.149C186.773 154.079 188.472 156.322 188.153 158.81C188.907 159.15 189.811 158.49 190.063 157.695C190.232 156.876 190.19 156.026 189.94 155.228C189.648 153.818 189.457 152.389 189.369 150.952C189.274 150.233 189.36 149.502 189.621 148.825C189.759 148.49 190.003 148.21 190.317 148.028C190.63 147.846 190.995 147.772 191.354 147.819C192.292 148.037 192.714 149.253 193.618 149.552C194.016 149.631 194.429 149.572 194.789 149.386C195.15 149.199 195.436 148.896 195.602 148.526C195.916 147.772 196.047 146.954 195.983 146.14V143.421C195.983 142.429 196.017 141.382 196.629 140.567C197.397 139.595 199.191 139.173 200.387 139.207C201.183 139.22 201.946 139.528 202.528 140.071C202.824 140.355 203.179 140.571 203.568 140.701C203.957 140.832 204.371 140.874 204.778 140.825V140.825Z" fill="#3F3D56"/>
<path opacity="0.1" d="M202.257 175.177L198.858 189.267C198.858 189.267 196.126 189.247 202.257 175.177Z" fill="black"/>
<path opacity="0.1" d="M190.539 172.825C190.539 172.825 195.032 180.18 193.258 187.779L192.422 187.84C192.422 187.84 193.937 184.326 190.539 172.825Z" fill="black"/>
<path opacity="0.1" d="M187.691 214.436C187.691 214.436 182.178 212.614 181.777 216.842C181.777 216.842 182.817 213.94 187.691 214.436Z" fill="black"/>
<path opacity="0.1" d="M203.629 190.123C203.629 190.123 204.724 197.79 202.753 200.856C205.846 201.95 209.131 202.396 212.404 202.167L213.084 190.123H203.629Z" fill="black"/>
<path opacity="0.1" d="M202.889 199.993L203.419 200.292L206.817 192.645L203.643 189.797H203.473C203.514 190.164 204.398 196.75 202.889 199.993Z" fill="black"/>
<path d="M203.629 189.797C203.629 189.797 204.724 197.464 202.753 200.529C205.847 201.62 209.131 202.066 212.404 201.841L216.238 189.797H203.629Z" fill="#3F3D56"/>
<path d="M213.084 317.688C213.147 318.235 213.39 318.745 213.776 319.137C214.161 319.53 214.666 319.783 215.211 319.857C218.182 320.305 225.346 321.433 227.154 322.297C229.458 323.391 238.545 322.623 238.98 321.529C239.042 321.31 239.06 321.082 239.033 320.857C239.006 320.632 238.935 320.414 238.824 320.217C238.515 319.547 238 318.992 237.356 318.633C237.138 318.517 236.91 318.419 236.676 318.341C234.963 317.77 231.735 316.56 230.858 315.289C230.858 315.289 226.827 311.761 225.679 309.851C225.463 309.476 225.157 309.16 224.79 308.931C224.422 308.703 224.004 308.568 223.572 308.54C222.613 308.499 221.533 308.981 221.111 311.082C221.111 311.082 215.857 314.079 214.437 311.449C214.437 311.449 214.212 315.486 213.342 316.594C213.115 316.91 213.022 317.304 213.084 317.688V317.688Z" fill="#CBCEDA"/>
<path opacity="0.1" d="M213.084 317.689C213.147 318.235 213.391 318.745 213.776 319.138C214.161 319.53 214.667 319.783 215.212 319.857C218.182 320.305 225.346 321.434 227.154 322.297C229.458 323.391 238.546 322.623 238.981 321.529C239.042 321.311 239.06 321.082 239.034 320.857C239.007 320.632 238.936 320.415 238.824 320.217C238.515 319.547 238.001 318.993 237.356 318.633C235.875 319.619 232.598 320.584 225.353 319.449C218.447 318.375 215.028 317.315 213.363 316.601C213.13 316.913 213.03 317.303 213.084 317.689Z" fill="black"/>
<g opacity="0.1">
<path opacity="0.1" d="M183.218 138.623C183.218 138.623 183.218 138.589 183.218 138.575C183.008 137.762 182.896 136.927 182.885 136.088C182.938 136.766 183.035 137.441 183.177 138.106C183.227 138.274 183.241 138.45 183.218 138.623Z" fill="black"/>
<path opacity="0.1" d="M189.607 148.873C189.435 149.27 189.343 149.697 189.335 150.13C189.287 149.534 189.38 148.936 189.607 148.383C189.746 148.049 189.991 147.769 190.304 147.587C190.617 147.406 190.981 147.332 191.34 147.377C192.278 147.595 192.7 148.818 193.604 149.111C194.002 149.19 194.415 149.132 194.776 148.946C195.137 148.759 195.423 148.455 195.588 148.084C195.903 147.33 196.034 146.513 195.969 145.698C195.969 144.788 195.969 143.87 195.969 142.98C195.969 142.089 196.003 140.907 196.615 140.125C197.383 139.153 199.177 138.725 200.374 138.766C201.171 138.772 201.936 139.08 202.515 139.629C202.807 139.922 203.162 140.146 203.552 140.285C203.943 140.423 204.359 140.473 204.771 140.431C205.136 140.376 205.477 140.22 205.756 139.979C206.035 139.739 206.24 139.424 206.348 139.071C206.436 138.718 206.416 138.337 206.518 137.991C206.776 137.128 207.694 136.679 208.306 136.026C208.884 135.394 209.212 134.572 209.23 133.715C209.276 134.222 209.218 134.732 209.059 135.215C208.9 135.698 208.644 136.143 208.306 136.523C207.694 137.202 206.776 137.624 206.518 138.48C206.416 138.834 206.436 139.207 206.348 139.561C206.24 139.913 206.034 140.227 205.755 140.468C205.476 140.708 205.135 140.865 204.771 140.92C204.358 140.963 203.941 140.913 203.551 140.773C203.16 140.633 202.806 140.407 202.515 140.111C201.934 139.566 201.17 139.258 200.374 139.248C199.177 139.207 197.383 139.636 196.615 140.608C196.003 141.389 195.976 142.47 195.969 143.462C195.962 144.455 195.969 145.291 195.969 146.181C196.033 146.993 195.903 147.809 195.588 148.56C195.425 148.933 195.139 149.238 194.778 149.425C194.417 149.612 194.002 149.669 193.604 149.586C192.686 149.294 192.278 148.077 191.34 147.86C190.98 147.813 190.614 147.886 190.3 148.07C189.987 148.253 189.743 148.535 189.607 148.873V148.873Z" fill="black"/>
<path opacity="0.1" d="M180.608 145.862C180.81 146.424 181.127 146.938 181.539 147.371L185.155 151.714C186.678 153.542 188.289 155.656 188.166 157.994C188.058 155.853 186.569 153.916 185.155 152.203L181.539 147.86C181.164 147.521 180.875 147.098 180.697 146.625C180.518 146.152 180.455 145.643 180.513 145.141C180.513 145.385 180.545 145.627 180.608 145.862V145.862Z" fill="black"/>
<path opacity="0.1" d="M190.049 157.26C190.109 157.068 190.145 156.87 190.158 156.669C190.187 157.033 190.15 157.399 190.049 157.75C189.798 158.545 188.9 159.204 188.139 158.858C188.161 158.7 188.172 158.541 188.173 158.382C188.571 158.479 188.99 158.416 189.341 158.206C189.692 157.996 189.947 157.656 190.049 157.26V157.26Z" fill="black"/>
</g>
<path opacity="0.1" d="M226.433 310.85C226.433 310.85 225.291 312.89 221.145 311.088Z" fill="black"/>
<path opacity="0.1" d="M191.368 311.333C191.368 311.333 187.793 315.548 183.287 312.693Z" fill="black"/>
<path opacity="0.1" d="M180.962 261.525C180.962 261.525 183.484 263.102 183.572 264.006C183.66 264.91 182.267 263.327 182.267 263.327L180.962 261.525Z" fill="black"/>
<path opacity="0.1" d="M179.963 273.631C180.84 274.364 181.933 274.791 183.076 274.847C184.965 274.929 184.809 277.389 183.572 276.655C182.294 275.74 181.087 274.729 179.963 273.631V273.631Z" fill="black"/>
<path opacity="0.1" d="M179.48 275.208C179.48 275.208 180.697 281.168 181.682 280.02Z" fill="black"/>
<path d="M56.6116 312.536C58.6507 308.791 56.3329 304.203 53.6957 300.866C51.0585 297.529 47.8436 294.069 47.9115 289.794C48.0135 283.677 54.5046 280.061 59.6906 276.819C63.5415 274.415 67.0919 271.56 70.2667 268.316C71.5951 267.066 72.6946 265.594 73.5156 263.965C74.5895 261.573 74.5555 258.854 74.4876 256.237C74.261 247.506 73.8305 238.785 73.1961 230.076" stroke="#3F3D56" stroke-width="4" stroke-miterlimit="10"/>
<path d="M83.0586 229.6C82.9863 228.002 82.5125 226.449 81.6809 225.082C80.8493 223.716 79.6868 222.582 78.3007 221.784L76.1665 226.005L76.2276 220.893C74.2929 220.328 72.2287 220.392 70.3325 221.075C68.4363 221.759 66.8061 223.027 65.6769 224.696C64.5478 226.366 63.9779 228.351 64.0495 230.365C64.1211 232.38 64.8305 234.319 66.0754 235.904C67.3203 237.49 69.0364 238.639 70.9764 239.186C72.9163 239.733 74.9799 239.65 76.8696 238.949C78.7593 238.247 80.3775 236.964 81.491 235.284C82.6046 233.604 83.1558 231.614 83.0654 229.6H83.0586Z" fill="#57B894"/>
<path d="M66.0461 294.164C65.0455 296.104 63.4087 297.64 61.41 298.516C59.4113 299.392 57.1722 299.555 55.0679 298.977C52.9636 298.398 51.1221 297.114 49.8519 295.34C48.5817 293.565 47.96 291.408 48.0911 289.23C48.2222 287.051 49.098 284.984 50.5719 283.375C52.0457 281.765 54.028 280.711 56.1864 280.389C58.3449 280.068 60.5483 280.497 62.4276 281.607C64.3068 282.717 65.7475 284.438 66.5083 286.484L60.5474 291.33L67.1065 289.814C67.1041 291.328 66.7405 292.819 66.0461 294.164V294.164Z" fill="#57B894"/>
<path d="M61.3357 275.642C58.9656 275.81 56.6185 275.085 54.7561 273.609C52.8937 272.133 51.6506 270.015 51.2715 267.669C50.8923 265.323 51.4045 262.921 52.7072 260.933C54.0099 258.946 56.0089 257.518 58.3111 256.931L58.2567 260.859L60.4182 256.584C61.6698 256.523 62.9211 256.709 64.1004 257.133C65.2797 257.557 66.3637 258.209 67.2902 259.053C68.2166 259.897 68.9673 260.915 69.4992 262.05C70.031 263.184 70.3335 264.413 70.3893 265.665C70.4451 266.765 70.3071 267.867 69.9815 268.92C69.4082 270.795 68.2701 272.447 66.7226 273.65C65.1751 274.853 63.2937 275.549 61.3357 275.642V275.642Z" fill="#57B894"/>
<path d="M84.493 260.234C83.0285 260.289 81.5711 260.004 80.2345 259.403C78.8979 258.802 77.7182 257.901 76.7874 256.769C75.8565 255.637 75.1997 254.305 74.8681 252.878C74.5366 251.45 74.5392 249.965 74.8758 248.539C75.2125 247.113 75.874 245.783 76.8088 244.655C77.7437 243.526 78.9266 242.629 80.2653 242.032C81.6041 241.436 83.0624 241.157 84.5267 241.217C85.991 241.277 87.4216 241.674 88.7071 242.378L87.0215 247L90.4947 243.67C92.3523 245.371 93.4596 247.739 93.5737 250.256C93.619 251.139 93.5389 252.025 93.3358 252.886C92.8598 254.905 91.7394 256.714 90.144 258.04C88.5486 259.365 86.5649 260.136 84.493 260.234Z" fill="#57B894"/>
<path opacity="0.1" d="M81.7737 232.142C79.5715 232.38 77.4305 233.067 75.2215 233.203C73.0125 233.339 70.586 232.808 69.1858 231.096C68.4381 230.171 68.0575 228.995 67.4254 227.989C66.8217 227.049 65.9952 226.271 65.0193 225.726C64.4437 226.929 64.1275 228.24 64.0911 229.573C64.0547 230.906 64.299 232.232 64.8081 233.465C65.3172 234.698 66.0797 235.809 67.0462 236.728C68.0127 237.647 69.1616 238.353 70.4184 238.799C71.6752 239.246 73.0117 239.423 74.3414 239.32C75.6711 239.216 76.9642 238.834 78.1368 238.199C79.3094 237.564 80.3353 236.689 81.1481 235.631C81.9608 234.574 82.5422 233.357 82.8545 232.061C82.4965 232.074 82.1362 232.102 81.7737 232.142Z" fill="black"/>
<path opacity="0.1" d="M84.4926 260.234C82.8474 260.317 81.2087 259.972 79.7369 259.233C78.265 258.493 77.0105 257.384 76.0959 256.013C75.1813 254.643 74.6381 253.059 74.5194 251.416C74.4007 249.773 74.7106 248.127 75.4187 246.64C76.1756 247.149 76.8265 247.8 77.3354 248.557C78.0151 249.583 78.4297 250.773 79.225 251.711C80.7135 253.457 83.2488 254.028 85.5529 253.926C87.8571 253.824 90.0797 253.165 92.3499 252.954C92.6693 252.954 92.9888 252.907 93.315 252.9C92.8375 254.913 91.719 256.717 90.1279 258.04C88.5368 259.362 86.5592 260.132 84.4926 260.234V260.234Z" fill="black"/>
<path opacity="0.1" d="M61.3356 275.642C59.7051 275.726 58.0805 275.389 56.618 274.663C55.1556 273.938 53.9044 272.848 52.9848 271.499C52.0652 270.15 51.5082 268.587 51.3672 266.96C51.2263 265.334 51.5062 263.699 52.1801 262.211C52.9726 262.727 53.6638 263.383 54.2192 264.149C54.96 265.195 55.4222 266.398 56.2922 267.364C57.9031 269.158 60.6083 269.79 63.0416 269.729C65.4749 269.668 67.6839 269.104 70.0289 268.92C69.4529 270.802 68.3076 272.459 66.7506 273.663C65.1937 274.867 63.3018 275.558 61.3356 275.642V275.642Z" fill="black"/>
<path opacity="0.1" d="M66.0459 294.164C65.0139 296.471 63.1079 298.273 60.7472 299.174C58.3865 300.075 55.7645 300.002 53.458 298.97C51.1515 297.938 49.3494 296.032 48.4483 293.671C47.5471 291.31 47.6206 288.688 48.6526 286.382C49.4415 286.895 50.1475 287.525 50.746 288.251C51.6568 289.352 52.255 290.609 53.3017 291.649C55.2524 293.566 58.3994 294.368 61.2065 294.429C62.8235 294.437 64.4395 294.348 66.0459 294.164Z" fill="black"/>
<path d="M42.2227 308.227C42.2227 308.227 49.7537 308.03 51.9967 306.378C54.2396 304.726 63.5515 302.837 64.136 305.426C64.7205 308.016 75.4529 318.341 66.9499 318.381C58.447 318.422 47.2048 317.022 44.9346 315.663C42.6645 314.303 42.2227 308.227 42.2227 308.227Z" fill="#656380"/>
<path opacity="0.2" d="M67.1334 317.478C58.6305 317.552 47.3815 316.159 45.1181 314.759C43.3917 313.705 42.7052 309.933 42.4741 308.2H42.2227C42.2227 308.2 42.6984 314.269 44.9414 315.676C47.1844 317.083 58.4605 318.45 66.9567 318.395C69.4104 318.395 70.26 317.505 70.2125 316.213C69.893 316.981 68.989 317.464 67.1334 317.478Z" fill="black"/>
<defs>
<linearGradient id="paint0_linear_1_498" x1="221.383" y1="311.204" x2="221.383" y2="311.041" gradientUnits="userSpaceOnUse">
<stop stop-color="#808080" stop-opacity="0.25"/>
<stop offset="0.54" stop-color="#808080" stop-opacity="0.12"/>
<stop offset="1" stop-color="#808080" stop-opacity="0.1"/>
</linearGradient>
</defs>
</svg>
