<svg width="1440" height="900" viewBox="0 0 1440 900" fill="none" xmlns="http://www.w3.org/2000/svg">
<path d="M476.56 439.846C845.297 135.805 1170.31 -216.104 1440.35 169.21C1608.31 408.87 1440.35 904.738 1440.35 904.738C1440.35 904.738 -361.801 1153.56 -31.5934 714.726C108.301 528.814 289.003 594.495 476.56 439.846Z" fill="#F9F9F9"/>
<line x1="1110.5" y1="549.5" x2="1874.21" y2="549.5" stroke="#444053" stroke-opacity="0.5" stroke-linecap="round"/>
<line x1="1110.5" y1="537.735" x2="1874.21" y2="537.735" stroke="#444053" stroke-opacity="0.5" stroke-linecap="round"/>
<line x1="1110.5" y1="516.167" x2="1874.21" y2="516.167" stroke="#444053" stroke-opacity="0.5" stroke-linecap="round"/>
<line x1="1110.5" y1="490.677" x2="1874.21" y2="490.677" stroke="#444053" stroke-opacity="0.5" stroke-linecap="round"/>
<line x1="1110.5" y1="482.834" x2="1874.21" y2="482.834" stroke="#444053" stroke-opacity="0.5" stroke-linecap="round"/>
<line x1="1110.5" y1="471.068" x2="1874.21" y2="471.068" stroke="#444053" stroke-opacity="0.5" stroke-linecap="round"/>
<line x1="1110.5" y1="463.225" x2="1874.21" y2="463.225" stroke="#444053" stroke-opacity="0.5" stroke-linecap="round"/>
<line x1="1110.5" y1="445.578" x2="1874.21" y2="445.578" stroke="#444053" stroke-opacity="0.5" stroke-linecap="round"/>
<line x1="1110.5" y1="439.696" x2="1874.21" y2="439.696" stroke="#444053" stroke-opacity="0.5" stroke-linecap="round"/>
<line x1="1110.5" y1="422.05" x2="1874.21" y2="422.05" stroke="#444053" stroke-opacity="0.5" stroke-linecap="round"/>
<line x1="1110.5" y1="412.245" x2="1874.21" y2="412.245" stroke="#444053" stroke-opacity="0.5" stroke-linecap="round"/>
<line x1="1110.5" y1="402.441" x2="1874.21" y2="402.441" stroke="#444053" stroke-opacity="0.5" stroke-linecap="round"/>
<line x1="1110.5" y1="392.638" x2="1874.21" y2="392.638" stroke="#444053" stroke-opacity="0.5" stroke-linecap="round"/>
<line x1="1110.5" y1="525.971" x2="1874.21" y2="525.971" stroke="#444053" stroke-opacity="0.5" stroke-linecap="round"/>
<line x1="1110.5" y1="373.03" x2="1874.21" y2="373.03" stroke="#444053" stroke-opacity="0.5" stroke-linecap="round"/>
<line x1="1110.5" y1="361.265" x2="1874.21" y2="361.265" stroke="#444053" stroke-opacity="0.5" stroke-linecap="round"/>
<line x1="1110.5" y1="339.696" x2="1874.21" y2="339.696" stroke="#444053" stroke-opacity="0.5" stroke-linecap="round"/>
<line x1="1110.5" y1="314.207" x2="1874.21" y2="314.207" stroke="#444053" stroke-opacity="0.5" stroke-linecap="round"/>
<line x1="1110.5" y1="306.363" x2="1874.21" y2="306.363" stroke="#444053" stroke-opacity="0.5" stroke-linecap="round"/>
<line x1="1110.5" y1="294.598" x2="1874.21" y2="294.598" stroke="#444053" stroke-opacity="0.5" stroke-linecap="round"/>
<line x1="1110.5" y1="286.755" x2="1874.21" y2="286.755" stroke="#444053" stroke-opacity="0.5" stroke-linecap="round"/>
<line x1="1110.5" y1="269.109" x2="1874.21" y2="269.109" stroke="#444053" stroke-opacity="0.5" stroke-linecap="round"/>
<line x1="1110.5" y1="263.225" x2="1874.21" y2="263.225" stroke="#444053" stroke-opacity="0.5" stroke-linecap="round"/>
<line x1="1110.5" y1="245.579" x2="1874.21" y2="245.579" stroke="#444053" stroke-opacity="0.5" stroke-linecap="round"/>
<line x1="1110.5" y1="235.775" x2="1874.21" y2="235.775" stroke="#444053" stroke-opacity="0.5" stroke-linecap="round"/>
<line x1="1110.5" y1="225.971" x2="1874.21" y2="225.971" stroke="#444053" stroke-opacity="0.5" stroke-linecap="round"/>
<line x1="1110.5" y1="216.167" x2="1874.21" y2="216.167" stroke="#444053" stroke-opacity="0.5" stroke-linecap="round"/>
<line x1="1110.5" y1="349.5" x2="1874.21" y2="349.5" stroke="#444053" stroke-opacity="0.5" stroke-linecap="round"/>
<line x1="1110.5" y1="206.363" x2="1874.21" y2="206.363" stroke="#444053" stroke-opacity="0.5" stroke-linecap="round"/>
<line x1="1110.5" y1="194.598" x2="1874.21" y2="194.598" stroke="#444053" stroke-opacity="0.5" stroke-linecap="round"/>
<line x1="1110.5" y1="173.029" x2="1874.21" y2="173.029" stroke="#444053" stroke-opacity="0.5" stroke-linecap="round"/>
<line x1="1110.5" y1="147.539" x2="1874.21" y2="147.539" stroke="#444053" stroke-opacity="0.5" stroke-linecap="round"/>
<line x1="1110.5" y1="139.696" x2="1874.21" y2="139.696" stroke="#444053" stroke-opacity="0.5" stroke-linecap="round"/>
<line x1="1110.5" y1="127.931" x2="1874.21" y2="127.931" stroke="#444053" stroke-opacity="0.5" stroke-linecap="round"/>
<line x1="1110.5" y1="120.088" x2="1874.21" y2="120.088" stroke="#444053" stroke-opacity="0.5" stroke-linecap="round"/>
<line x1="1110.5" y1="102.442" x2="1874.21" y2="102.442" stroke="#444053" stroke-opacity="0.5" stroke-linecap="round"/>
<line x1="1110.5" y1="96.5585" x2="1874.21" y2="96.5585" stroke="#444053" stroke-opacity="0.5" stroke-linecap="round"/>
<line x1="1110.5" y1="78.9113" x2="1874.21" y2="78.9113" stroke="#444053" stroke-opacity="0.5" stroke-linecap="round"/>
<line x1="1110.5" y1="69.1078" x2="1874.21" y2="69.1078" stroke="#444053" stroke-opacity="0.5" stroke-linecap="round"/>
<line x1="1110.5" y1="59.3037" x2="1874.21" y2="59.3037" stroke="#444053" stroke-opacity="0.5" stroke-linecap="round"/>
<line x1="1110.5" y1="49.5" x2="1874.21" y2="49.5" stroke="#444053" stroke-opacity="0.5" stroke-linecap="round"/>
<line x1="1110.5" y1="182.833" x2="1874.21" y2="182.833" stroke="#444053" stroke-opacity="0.5" stroke-linecap="round"/>
<path d="M663.187 755.808C1411.21 829.671 976.676 621.045 1415.86 514.105C1638.93 459.787 1415.86 962.448 1415.86 962.448C1415.86 962.448 -249.164 1144.58 70.8571 877.091C206.435 763.767 424.976 732.287 663.187 755.808Z" fill="#7EC845"/>
</svg>
