<svg width="1440" height="810" viewBox="0 0 1440 810" fill="none" xmlns="http://www.w3.org/2000/svg">
<rect x="1160" y="550" width="300" height="300" transform="rotate(-30 1160 550)" fill="#D1C1B4" fill-opacity="0.25"/>
<circle cx="0.769005" cy="3.84615" r="3.84615" fill="#C4C4C4" fill-opacity="0.25"/>
<circle cx="16.1538" cy="3.84615" r="3.84615" fill="#C4C4C4" fill-opacity="0.25"/>
<circle cx="31.5385" cy="3.84615" r="3.84615" fill="#C4C4C4" fill-opacity="0.25"/>
<circle cx="46.9233" cy="3.84615" r="3.84615" fill="#C4C4C4" fill-opacity="0.25"/>
<circle cx="62.3076" cy="3.84615" r="3.84615" fill="#C4C4C4" fill-opacity="0.25"/>
<circle cx="77.6921" cy="3.84615" r="3.84615" fill="#C4C4C4" fill-opacity="0.25"/>
<circle cx="93.0774" cy="3.84615" r="3.84615" fill="#C4C4C4" fill-opacity="0.25"/>
<circle cx="108.461" cy="3.84615" r="3.84615" fill="#C4C4C4" fill-opacity="0.25"/>
<circle cx="123.846" cy="3.84615" r="3.84615" fill="#C4C4C4" fill-opacity="0.25"/>
<circle cx="139.231" cy="3.84615" r="3.84615" fill="#C4C4C4" fill-opacity="0.25"/>
<circle cx="154.615" cy="3.84615" r="3.84615" fill="#C4C4C4" fill-opacity="0.25"/>
<circle cx="170" cy="3.84615" r="3.84615" fill="#C4C4C4" fill-opacity="0.25"/>
<circle cx="185.384" cy="3.84615" r="3.84615" fill="#C4C4C4" fill-opacity="0.25"/>
<circle cx="200.769" cy="3.84615" r="3.84615" fill="#C4C4C4" fill-opacity="0.25"/>
<circle cx="216.154" cy="3.84615" r="3.84615" fill="#C4C4C4" fill-opacity="0.25"/>
<circle cx="0.769005" cy="19.2307" r="3.84615" fill="#C4C4C4" fill-opacity="0.25"/>
<circle cx="16.1538" cy="19.2307" r="3.84615" fill="#C4C4C4" fill-opacity="0.25"/>
<circle cx="31.5385" cy="19.2307" r="3.84615" fill="#C4C4C4" fill-opacity="0.25"/>
<circle cx="46.9233" cy="19.2307" r="3.84615" fill="#C4C4C4" fill-opacity="0.25"/>
<circle cx="62.3076" cy="19.2307" r="3.84615" fill="#C4C4C4" fill-opacity="0.25"/>
<circle cx="77.6921" cy="19.2307" r="3.84615" fill="#C4C4C4" fill-opacity="0.25"/>
<circle cx="93.0774" cy="19.2307" r="3.84615" fill="#C4C4C4" fill-opacity="0.25"/>
<circle cx="108.461" cy="19.2307" r="3.84615" fill="#C4C4C4" fill-opacity="0.25"/>
<circle cx="123.846" cy="19.2307" r="3.84615" fill="#C4C4C4" fill-opacity="0.25"/>
<circle cx="139.231" cy="19.2307" r="3.84615" fill="#C4C4C4" fill-opacity="0.25"/>
<circle cx="154.615" cy="19.2307" r="3.84615" fill="#C4C4C4" fill-opacity="0.25"/>
<circle cx="170" cy="19.2307" r="3.84615" fill="#C4C4C4" fill-opacity="0.25"/>
<circle cx="185.384" cy="19.2307" r="3.84615" fill="#C4C4C4" fill-opacity="0.25"/>
<circle cx="200.769" cy="19.2307" r="3.84615" fill="#C4C4C4" fill-opacity="0.25"/>
<circle cx="216.154" cy="19.2307" r="3.84615" fill="#C4C4C4" fill-opacity="0.25"/>
<circle cx="0.769005" cy="34.6152" r="3.84615" fill="#C4C4C4" fill-opacity="0.25"/>
<circle cx="16.1538" cy="34.6152" r="3.84615" fill="#C4C4C4" fill-opacity="0.25"/>
<circle cx="31.5385" cy="34.6152" r="3.84615" fill="#C4C4C4" fill-opacity="0.25"/>
<circle cx="46.9233" cy="34.6152" r="3.84615" fill="#C4C4C4" fill-opacity="0.25"/>
<circle cx="62.3076" cy="34.6152" r="3.84615" fill="#C4C4C4" fill-opacity="0.25"/>
<circle cx="77.6921" cy="34.6152" r="3.84615" fill="#C4C4C4" fill-opacity="0.25"/>
<circle cx="93.0774" cy="34.6152" r="3.84615" fill="#C4C4C4" fill-opacity="0.25"/>
<circle cx="108.461" cy="34.6152" r="3.84615" fill="#C4C4C4" fill-opacity="0.25"/>
<circle cx="123.846" cy="34.6152" r="3.84615" fill="#C4C4C4" fill-opacity="0.25"/>
<circle cx="139.231" cy="34.6152" r="3.84615" fill="#C4C4C4" fill-opacity="0.25"/>
<circle cx="154.615" cy="34.6152" r="3.84615" fill="#C4C4C4" fill-opacity="0.25"/>
<circle cx="170" cy="34.6152" r="3.84615" fill="#C4C4C4" fill-opacity="0.25"/>
<circle cx="185.384" cy="34.6152" r="3.84615" fill="#C4C4C4" fill-opacity="0.25"/>
<circle cx="200.769" cy="34.6152" r="3.84615" fill="#C4C4C4" fill-opacity="0.25"/>
<circle cx="216.154" cy="34.6152" r="3.84615" fill="#C4C4C4" fill-opacity="0.25"/>
<circle cx="0.769005" cy="49.9997" r="3.84615" fill="#C4C4C4" fill-opacity="0.25"/>
<circle cx="16.1538" cy="49.9997" r="3.84615" fill="#C4C4C4" fill-opacity="0.25"/>
<circle cx="31.5385" cy="49.9997" r="3.84615" fill="#C4C4C4" fill-opacity="0.25"/>
<circle cx="46.9233" cy="49.9997" r="3.84615" fill="#C4C4C4" fill-opacity="0.25"/>
<circle cx="62.3076" cy="49.9997" r="3.84615" fill="#C4C4C4" fill-opacity="0.25"/>
<circle cx="77.6921" cy="49.9997" r="3.84615" fill="#C4C4C4" fill-opacity="0.25"/>
<circle cx="93.0774" cy="49.9997" r="3.84615" fill="#C4C4C4" fill-opacity="0.25"/>
<circle cx="108.461" cy="49.9997" r="3.84615" fill="#C4C4C4" fill-opacity="0.25"/>
<circle cx="123.846" cy="49.9997" r="3.84615" fill="#C4C4C4" fill-opacity="0.25"/>
<circle cx="139.231" cy="49.9997" r="3.84615" fill="#C4C4C4" fill-opacity="0.25"/>
<circle cx="154.615" cy="49.9997" r="3.84615" fill="#C4C4C4" fill-opacity="0.25"/>
<circle cx="170" cy="49.9997" r="3.84615" fill="#C4C4C4" fill-opacity="0.25"/>
<circle cx="185.384" cy="49.9997" r="3.84615" fill="#C4C4C4" fill-opacity="0.25"/>
<circle cx="200.769" cy="49.9997" r="3.84615" fill="#C4C4C4" fill-opacity="0.25"/>
<circle cx="216.154" cy="49.9997" r="3.84615" fill="#C4C4C4" fill-opacity="0.25"/>
<circle cx="0.769005" cy="65.3845" r="3.84615" fill="#C4C4C4" fill-opacity="0.25"/>
<circle cx="16.1538" cy="65.3845" r="3.84615" fill="#C4C4C4" fill-opacity="0.25"/>
<circle cx="31.5385" cy="65.3845" r="3.84615" fill="#C4C4C4" fill-opacity="0.25"/>
<circle cx="46.9233" cy="65.3845" r="3.84615" fill="#C4C4C4" fill-opacity="0.25"/>
<circle cx="62.3076" cy="65.3845" r="3.84615" fill="#C4C4C4" fill-opacity="0.25"/>
<circle cx="77.6921" cy="65.3845" r="3.84615" fill="#C4C4C4" fill-opacity="0.25"/>
<circle cx="93.0774" cy="65.3845" r="3.84615" fill="#C4C4C4" fill-opacity="0.25"/>
<circle cx="108.461" cy="65.3845" r="3.84615" fill="#C4C4C4" fill-opacity="0.25"/>
<circle cx="123.846" cy="65.3845" r="3.84615" fill="#C4C4C4" fill-opacity="0.25"/>
<circle cx="139.231" cy="65.3845" r="3.84615" fill="#C4C4C4" fill-opacity="0.25"/>
<circle cx="154.615" cy="65.3845" r="3.84615" fill="#C4C4C4" fill-opacity="0.25"/>
<circle cx="170" cy="65.3845" r="3.84615" fill="#C4C4C4" fill-opacity="0.25"/>
<circle cx="185.384" cy="65.3845" r="3.84615" fill="#C4C4C4" fill-opacity="0.25"/>
<circle cx="200.769" cy="65.3845" r="3.84615" fill="#C4C4C4" fill-opacity="0.25"/>
<circle cx="216.154" cy="65.3845" r="3.84615" fill="#C4C4C4" fill-opacity="0.25"/>
<circle cx="0.769005" cy="80.7695" r="3.84615" fill="#C4C4C4" fill-opacity="0.25"/>
<circle cx="16.1538" cy="80.7695" r="3.84615" fill="#C4C4C4" fill-opacity="0.25"/>
<circle cx="31.5385" cy="80.7695" r="3.84615" fill="#C4C4C4" fill-opacity="0.25"/>
<circle cx="46.9233" cy="80.7695" r="3.84615" fill="#C4C4C4" fill-opacity="0.25"/>
<circle cx="62.3076" cy="80.7695" r="3.84615" fill="#C4C4C4" fill-opacity="0.25"/>
<circle cx="77.6921" cy="80.7695" r="3.84615" fill="#C4C4C4" fill-opacity="0.25"/>
<circle cx="93.0774" cy="80.7695" r="3.84615" fill="#C4C4C4" fill-opacity="0.25"/>
<circle cx="108.461" cy="80.7695" r="3.84615" fill="#C4C4C4" fill-opacity="0.25"/>
<circle cx="123.846" cy="80.7695" r="3.84615" fill="#C4C4C4" fill-opacity="0.25"/>
<circle cx="139.231" cy="80.7695" r="3.84615" fill="#C4C4C4" fill-opacity="0.25"/>
<circle cx="154.615" cy="80.7695" r="3.84615" fill="#C4C4C4" fill-opacity="0.25"/>
<circle cx="170" cy="80.7695" r="3.84615" fill="#C4C4C4" fill-opacity="0.25"/>
<circle cx="185.384" cy="80.7695" r="3.84615" fill="#C4C4C4" fill-opacity="0.25"/>
<circle cx="200.769" cy="80.7695" r="3.84615" fill="#C4C4C4" fill-opacity="0.25"/>
<circle cx="216.154" cy="80.7695" r="3.84615" fill="#C4C4C4" fill-opacity="0.25"/>
<circle cx="0.769005" cy="96.1535" r="3.84615" fill="#C4C4C4" fill-opacity="0.25"/>
<circle cx="16.1538" cy="96.1535" r="3.84615" fill="#C4C4C4" fill-opacity="0.25"/>
<circle cx="31.5385" cy="96.1535" r="3.84615" fill="#C4C4C4" fill-opacity="0.25"/>
<circle cx="46.9233" cy="96.1535" r="3.84615" fill="#C4C4C4" fill-opacity="0.25"/>
<circle cx="62.3076" cy="96.1535" r="3.84615" fill="#C4C4C4" fill-opacity="0.25"/>
<circle cx="77.6921" cy="96.1535" r="3.84615" fill="#C4C4C4" fill-opacity="0.25"/>
<circle cx="93.0774" cy="96.1535" r="3.84615" fill="#C4C4C4" fill-opacity="0.25"/>
<circle cx="108.461" cy="96.1535" r="3.84615" fill="#C4C4C4" fill-opacity="0.25"/>
<circle cx="123.846" cy="96.1535" r="3.84615" fill="#C4C4C4" fill-opacity="0.25"/>
<circle cx="139.231" cy="96.1535" r="3.84615" fill="#C4C4C4" fill-opacity="0.25"/>
<circle cx="154.615" cy="96.1535" r="3.84615" fill="#C4C4C4" fill-opacity="0.25"/>
<circle cx="170" cy="96.1535" r="3.84615" fill="#C4C4C4" fill-opacity="0.25"/>
<circle cx="185.384" cy="96.1535" r="3.84615" fill="#C4C4C4" fill-opacity="0.25"/>
<circle cx="200.769" cy="96.1535" r="3.84615" fill="#C4C4C4" fill-opacity="0.25"/>
<circle cx="216.154" cy="96.1535" r="3.84615" fill="#C4C4C4" fill-opacity="0.25"/>
<circle cx="0.769005" cy="111.539" r="3.84615" fill="#C4C4C4" fill-opacity="0.25"/>
<circle cx="16.1538" cy="111.539" r="3.84615" fill="#C4C4C4" fill-opacity="0.25"/>
<circle cx="31.5385" cy="111.539" r="3.84615" fill="#C4C4C4" fill-opacity="0.25"/>
<circle cx="46.9233" cy="111.539" r="3.84615" fill="#C4C4C4" fill-opacity="0.25"/>
<circle cx="62.3076" cy="111.539" r="3.84615" fill="#C4C4C4" fill-opacity="0.25"/>
<circle cx="77.6921" cy="111.539" r="3.84615" fill="#C4C4C4" fill-opacity="0.25"/>
<circle cx="93.0774" cy="111.539" r="3.84615" fill="#C4C4C4" fill-opacity="0.25"/>
<circle cx="108.461" cy="111.539" r="3.84615" fill="#C4C4C4" fill-opacity="0.25"/>
<circle cx="123.846" cy="111.539" r="3.84615" fill="#C4C4C4" fill-opacity="0.25"/>
<circle cx="139.231" cy="111.539" r="3.84615" fill="#C4C4C4" fill-opacity="0.25"/>
<circle cx="154.615" cy="111.539" r="3.84615" fill="#C4C4C4" fill-opacity="0.25"/>
<circle cx="170" cy="111.539" r="3.84615" fill="#C4C4C4" fill-opacity="0.25"/>
<circle cx="185.384" cy="111.539" r="3.84615" fill="#C4C4C4" fill-opacity="0.25"/>
<circle cx="200.769" cy="111.539" r="3.84615" fill="#C4C4C4" fill-opacity="0.25"/>
<circle cx="216.154" cy="111.539" r="3.84615" fill="#C4C4C4" fill-opacity="0.25"/>
<circle cx="0.769005" cy="126.923" r="3.84615" fill="#C4C4C4" fill-opacity="0.25"/>
<circle cx="16.1538" cy="126.923" r="3.84615" fill="#C4C4C4" fill-opacity="0.25"/>
<circle cx="31.5385" cy="126.923" r="3.84615" fill="#C4C4C4" fill-opacity="0.25"/>
<circle cx="46.9233" cy="126.923" r="3.84615" fill="#C4C4C4" fill-opacity="0.25"/>
<circle cx="62.3076" cy="126.923" r="3.84615" fill="#C4C4C4" fill-opacity="0.25"/>
<circle cx="77.6921" cy="126.923" r="3.84615" fill="#C4C4C4" fill-opacity="0.25"/>
<circle cx="93.0774" cy="126.923" r="3.84615" fill="#C4C4C4" fill-opacity="0.25"/>
<circle cx="108.461" cy="126.923" r="3.84615" fill="#C4C4C4" fill-opacity="0.25"/>
<circle cx="123.846" cy="126.923" r="3.84615" fill="#C4C4C4" fill-opacity="0.25"/>
<circle cx="139.231" cy="126.923" r="3.84615" fill="#C4C4C4" fill-opacity="0.25"/>
<circle cx="154.615" cy="126.923" r="3.84615" fill="#C4C4C4" fill-opacity="0.25"/>
<circle cx="170" cy="126.923" r="3.84615" fill="#C4C4C4" fill-opacity="0.25"/>
<circle cx="185.384" cy="126.923" r="3.84615" fill="#C4C4C4" fill-opacity="0.25"/>
<circle cx="200.769" cy="126.923" r="3.84615" fill="#C4C4C4" fill-opacity="0.25"/>
<circle cx="216.154" cy="126.923" r="3.84615" fill="#C4C4C4" fill-opacity="0.25"/>
<circle cx="0.769005" cy="142.308" r="3.84615" fill="#C4C4C4" fill-opacity="0.25"/>
<circle cx="16.1538" cy="142.308" r="3.84615" fill="#C4C4C4" fill-opacity="0.25"/>
<circle cx="31.5385" cy="142.308" r="3.84615" fill="#C4C4C4" fill-opacity="0.25"/>
<circle cx="46.9233" cy="142.308" r="3.84615" fill="#C4C4C4" fill-opacity="0.25"/>
<circle cx="62.3076" cy="142.308" r="3.84615" fill="#C4C4C4" fill-opacity="0.25"/>
<circle cx="77.6921" cy="142.308" r="3.84615" fill="#C4C4C4" fill-opacity="0.25"/>
<circle cx="93.0774" cy="142.308" r="3.84615" fill="#C4C4C4" fill-opacity="0.25"/>
<circle cx="108.461" cy="142.308" r="3.84615" fill="#C4C4C4" fill-opacity="0.25"/>
<circle cx="123.846" cy="142.308" r="3.84615" fill="#C4C4C4" fill-opacity="0.25"/>
<circle cx="139.231" cy="142.308" r="3.84615" fill="#C4C4C4" fill-opacity="0.25"/>
<circle cx="154.615" cy="142.308" r="3.84615" fill="#C4C4C4" fill-opacity="0.25"/>
<circle cx="170" cy="142.308" r="3.84615" fill="#C4C4C4" fill-opacity="0.25"/>
<circle cx="185.384" cy="142.308" r="3.84615" fill="#C4C4C4" fill-opacity="0.25"/>
<circle cx="200.769" cy="142.308" r="3.84615" fill="#C4C4C4" fill-opacity="0.25"/>
<circle cx="216.154" cy="142.308" r="3.84615" fill="#C4C4C4" fill-opacity="0.25"/>
<circle cx="0.769005" cy="157.692" r="3.84615" fill="#C4C4C4" fill-opacity="0.25"/>
<circle cx="16.1538" cy="157.692" r="3.84615" fill="#C4C4C4" fill-opacity="0.25"/>
<circle cx="31.5385" cy="157.692" r="3.84615" fill="#C4C4C4" fill-opacity="0.25"/>
<circle cx="46.9233" cy="157.692" r="3.84615" fill="#C4C4C4" fill-opacity="0.25"/>
<circle cx="62.3076" cy="157.692" r="3.84615" fill="#C4C4C4" fill-opacity="0.25"/>
<circle cx="77.6921" cy="157.692" r="3.84615" fill="#C4C4C4" fill-opacity="0.25"/>
<circle cx="93.0774" cy="157.692" r="3.84615" fill="#C4C4C4" fill-opacity="0.25"/>
<circle cx="108.461" cy="157.692" r="3.84615" fill="#C4C4C4" fill-opacity="0.25"/>
<circle cx="123.846" cy="157.692" r="3.84615" fill="#C4C4C4" fill-opacity="0.25"/>
<circle cx="139.231" cy="157.692" r="3.84615" fill="#C4C4C4" fill-opacity="0.25"/>
<circle cx="154.615" cy="157.692" r="3.84615" fill="#C4C4C4" fill-opacity="0.25"/>
<circle cx="170" cy="157.692" r="3.84615" fill="#C4C4C4" fill-opacity="0.25"/>
<circle cx="185.384" cy="157.692" r="3.84615" fill="#C4C4C4" fill-opacity="0.25"/>
<circle cx="200.769" cy="157.692" r="3.84615" fill="#C4C4C4" fill-opacity="0.25"/>
<circle cx="216.154" cy="157.692" r="3.84615" fill="#C4C4C4" fill-opacity="0.25"/>
<circle cx="0.769005" cy="173.077" r="3.84615" fill="#C4C4C4" fill-opacity="0.25"/>
<circle cx="16.1538" cy="173.077" r="3.84615" fill="#C4C4C4" fill-opacity="0.25"/>
<circle cx="31.5385" cy="173.077" r="3.84615" fill="#C4C4C4" fill-opacity="0.25"/>
<circle cx="46.9233" cy="173.077" r="3.84615" fill="#C4C4C4" fill-opacity="0.25"/>
<circle cx="62.3076" cy="173.077" r="3.84615" fill="#C4C4C4" fill-opacity="0.25"/>
<circle cx="77.6921" cy="173.077" r="3.84615" fill="#C4C4C4" fill-opacity="0.25"/>
<circle cx="93.0774" cy="173.077" r="3.84615" fill="#C4C4C4" fill-opacity="0.25"/>
<circle cx="108.461" cy="173.077" r="3.84615" fill="#C4C4C4" fill-opacity="0.25"/>
<circle cx="123.846" cy="173.077" r="3.84615" fill="#C4C4C4" fill-opacity="0.25"/>
<circle cx="139.231" cy="173.077" r="3.84615" fill="#C4C4C4" fill-opacity="0.25"/>
<circle cx="154.615" cy="173.077" r="3.84615" fill="#C4C4C4" fill-opacity="0.25"/>
<circle cx="170" cy="173.077" r="3.84615" fill="#C4C4C4" fill-opacity="0.25"/>
<circle cx="185.384" cy="173.077" r="3.84615" fill="#C4C4C4" fill-opacity="0.25"/>
<circle cx="200.769" cy="173.077" r="3.84615" fill="#C4C4C4" fill-opacity="0.25"/>
<circle cx="216.154" cy="173.077" r="3.84615" fill="#C4C4C4" fill-opacity="0.25"/>
<circle cx="0.769005" cy="188.461" r="3.84615" fill="#C4C4C4" fill-opacity="0.25"/>
<circle cx="16.1538" cy="188.461" r="3.84615" fill="#C4C4C4" fill-opacity="0.25"/>
<circle cx="31.5385" cy="188.461" r="3.84615" fill="#C4C4C4" fill-opacity="0.25"/>
<circle cx="46.9233" cy="188.461" r="3.84615" fill="#C4C4C4" fill-opacity="0.25"/>
<circle cx="62.3076" cy="188.461" r="3.84615" fill="#C4C4C4" fill-opacity="0.25"/>
<circle cx="77.6921" cy="188.461" r="3.84615" fill="#C4C4C4" fill-opacity="0.25"/>
<circle cx="93.0774" cy="188.461" r="3.84615" fill="#C4C4C4" fill-opacity="0.25"/>
<circle cx="108.461" cy="188.461" r="3.84615" fill="#C4C4C4" fill-opacity="0.25"/>
<circle cx="123.846" cy="188.461" r="3.84615" fill="#C4C4C4" fill-opacity="0.25"/>
<circle cx="139.231" cy="188.461" r="3.84615" fill="#C4C4C4" fill-opacity="0.25"/>
<circle cx="154.615" cy="188.461" r="3.84615" fill="#C4C4C4" fill-opacity="0.25"/>
<circle cx="170" cy="188.461" r="3.84615" fill="#C4C4C4" fill-opacity="0.25"/>
<circle cx="185.384" cy="188.461" r="3.84615" fill="#C4C4C4" fill-opacity="0.25"/>
<circle cx="200.769" cy="188.461" r="3.84615" fill="#C4C4C4" fill-opacity="0.25"/>
<circle cx="216.154" cy="188.461" r="3.84615" fill="#C4C4C4" fill-opacity="0.25"/>
<circle cx="0.769005" cy="203.846" r="3.84615" fill="#C4C4C4" fill-opacity="0.25"/>
<circle cx="16.1538" cy="203.846" r="3.84615" fill="#C4C4C4" fill-opacity="0.25"/>
<circle cx="31.5385" cy="203.846" r="3.84615" fill="#C4C4C4" fill-opacity="0.25"/>
<circle cx="46.9233" cy="203.846" r="3.84615" fill="#C4C4C4" fill-opacity="0.25"/>
<circle cx="62.3076" cy="203.846" r="3.84615" fill="#C4C4C4" fill-opacity="0.25"/>
<circle cx="77.6921" cy="203.846" r="3.84615" fill="#C4C4C4" fill-opacity="0.25"/>
<circle cx="93.0774" cy="203.846" r="3.84615" fill="#C4C4C4" fill-opacity="0.25"/>
<circle cx="108.461" cy="203.846" r="3.84615" fill="#C4C4C4" fill-opacity="0.25"/>
<circle cx="123.846" cy="203.846" r="3.84615" fill="#C4C4C4" fill-opacity="0.25"/>
<circle cx="139.231" cy="203.846" r="3.84615" fill="#C4C4C4" fill-opacity="0.25"/>
<circle cx="154.615" cy="203.846" r="3.84615" fill="#C4C4C4" fill-opacity="0.25"/>
<circle cx="170" cy="203.846" r="3.84615" fill="#C4C4C4" fill-opacity="0.25"/>
<circle cx="185.384" cy="203.846" r="3.84615" fill="#C4C4C4" fill-opacity="0.25"/>
<circle cx="200.769" cy="203.846" r="3.84615" fill="#C4C4C4" fill-opacity="0.25"/>
<circle cx="216.154" cy="203.846" r="3.84615" fill="#C4C4C4" fill-opacity="0.25"/>
<circle cx="0.769005" cy="219.231" r="3.84615" fill="#C4C4C4" fill-opacity="0.25"/>
<circle cx="16.1538" cy="219.231" r="3.84615" fill="#C4C4C4" fill-opacity="0.25"/>
<circle cx="31.5385" cy="219.231" r="3.84615" fill="#C4C4C4" fill-opacity="0.25"/>
<circle cx="46.9233" cy="219.231" r="3.84615" fill="#C4C4C4" fill-opacity="0.25"/>
<circle cx="62.3076" cy="219.231" r="3.84615" fill="#C4C4C4" fill-opacity="0.25"/>
<circle cx="77.6921" cy="219.231" r="3.84615" fill="#C4C4C4" fill-opacity="0.25"/>
<circle cx="93.0774" cy="219.231" r="3.84615" fill="#C4C4C4" fill-opacity="0.25"/>
<circle cx="108.461" cy="219.231" r="3.84615" fill="#C4C4C4" fill-opacity="0.25"/>
<circle cx="123.846" cy="219.231" r="3.84615" fill="#C4C4C4" fill-opacity="0.25"/>
<circle cx="139.231" cy="219.231" r="3.84615" fill="#C4C4C4" fill-opacity="0.25"/>
<circle cx="154.615" cy="219.231" r="3.84615" fill="#C4C4C4" fill-opacity="0.25"/>
<circle cx="170" cy="219.231" r="3.84615" fill="#C4C4C4" fill-opacity="0.25"/>
<circle cx="185.384" cy="219.231" r="3.84615" fill="#C4C4C4" fill-opacity="0.25"/>
<circle cx="200.769" cy="219.231" r="3.84615" fill="#C4C4C4" fill-opacity="0.25"/>
<circle cx="216.154" cy="219.231" r="3.84615" fill="#C4C4C4" fill-opacity="0.25"/>
<circle cx="0.769005" cy="234.615" r="3.84615" fill="#C4C4C4" fill-opacity="0.25"/>
<circle cx="16.1538" cy="234.615" r="3.84615" fill="#C4C4C4" fill-opacity="0.25"/>
<circle cx="31.5385" cy="234.615" r="3.84615" fill="#C4C4C4" fill-opacity="0.25"/>
<circle cx="46.9233" cy="234.615" r="3.84615" fill="#C4C4C4" fill-opacity="0.25"/>
<circle cx="62.3076" cy="234.615" r="3.84615" fill="#C4C4C4" fill-opacity="0.25"/>
<circle cx="77.6921" cy="234.615" r="3.84615" fill="#C4C4C4" fill-opacity="0.25"/>
<circle cx="93.0774" cy="234.615" r="3.84615" fill="#C4C4C4" fill-opacity="0.25"/>
<circle cx="108.461" cy="234.615" r="3.84615" fill="#C4C4C4" fill-opacity="0.25"/>
<circle cx="123.846" cy="234.615" r="3.84615" fill="#C4C4C4" fill-opacity="0.25"/>
<circle cx="139.231" cy="234.615" r="3.84615" fill="#C4C4C4" fill-opacity="0.25"/>
<circle cx="154.615" cy="234.615" r="3.84615" fill="#C4C4C4" fill-opacity="0.25"/>
<circle cx="170" cy="234.615" r="3.84615" fill="#C4C4C4" fill-opacity="0.25"/>
<circle cx="185.384" cy="234.615" r="3.84615" fill="#C4C4C4" fill-opacity="0.25"/>
<circle cx="200.769" cy="234.615" r="3.84615" fill="#C4C4C4" fill-opacity="0.25"/>
<circle cx="216.154" cy="234.615" r="3.84615" fill="#C4C4C4" fill-opacity="0.25"/>
<circle cx="0.769005" cy="250" r="3.84615" fill="#C4C4C4" fill-opacity="0.25"/>
<circle cx="16.1538" cy="250" r="3.84615" fill="#C4C4C4" fill-opacity="0.25"/>
<circle cx="31.5385" cy="250" r="3.84615" fill="#C4C4C4" fill-opacity="0.25"/>
<circle cx="46.9233" cy="250" r="3.84615" fill="#C4C4C4" fill-opacity="0.25"/>
<circle cx="62.3076" cy="250" r="3.84615" fill="#C4C4C4" fill-opacity="0.25"/>
<circle cx="77.6921" cy="250" r="3.84615" fill="#C4C4C4" fill-opacity="0.25"/>
<circle cx="93.0774" cy="250" r="3.84615" fill="#C4C4C4" fill-opacity="0.25"/>
<circle cx="108.461" cy="250" r="3.84615" fill="#C4C4C4" fill-opacity="0.25"/>
<circle cx="123.846" cy="250" r="3.84615" fill="#C4C4C4" fill-opacity="0.25"/>
<circle cx="139.231" cy="250" r="3.84615" fill="#C4C4C4" fill-opacity="0.25"/>
<circle cx="154.615" cy="250" r="3.84615" fill="#C4C4C4" fill-opacity="0.25"/>
<circle cx="170" cy="250" r="3.84615" fill="#C4C4C4" fill-opacity="0.25"/>
<circle cx="185.384" cy="250" r="3.84615" fill="#C4C4C4" fill-opacity="0.25"/>
<circle cx="200.769" cy="250" r="3.84615" fill="#C4C4C4" fill-opacity="0.25"/>
<circle cx="216.154" cy="250" r="3.84615" fill="#C4C4C4" fill-opacity="0.25"/>
<circle cx="0.769005" cy="265.384" r="3.84615" fill="#C4C4C4" fill-opacity="0.25"/>
<circle cx="16.1538" cy="265.384" r="3.84615" fill="#C4C4C4" fill-opacity="0.25"/>
<circle cx="31.5385" cy="265.384" r="3.84615" fill="#C4C4C4" fill-opacity="0.25"/>
<circle cx="46.9233" cy="265.384" r="3.84615" fill="#C4C4C4" fill-opacity="0.25"/>
<circle cx="62.3076" cy="265.384" r="3.84615" fill="#C4C4C4" fill-opacity="0.25"/>
<circle cx="77.6921" cy="265.384" r="3.84615" fill="#C4C4C4" fill-opacity="0.25"/>
<circle cx="93.0774" cy="265.384" r="3.84615" fill="#C4C4C4" fill-opacity="0.25"/>
<circle cx="108.461" cy="265.384" r="3.84615" fill="#C4C4C4" fill-opacity="0.25"/>
<circle cx="123.846" cy="265.384" r="3.84615" fill="#C4C4C4" fill-opacity="0.25"/>
<circle cx="139.231" cy="265.384" r="3.84615" fill="#C4C4C4" fill-opacity="0.25"/>
<circle cx="154.615" cy="265.384" r="3.84615" fill="#C4C4C4" fill-opacity="0.25"/>
<circle cx="170" cy="265.384" r="3.84615" fill="#C4C4C4" fill-opacity="0.25"/>
<circle cx="185.384" cy="265.384" r="3.84615" fill="#C4C4C4" fill-opacity="0.25"/>
<circle cx="200.769" cy="265.384" r="3.84615" fill="#C4C4C4" fill-opacity="0.25"/>
<circle cx="216.154" cy="265.384" r="3.84615" fill="#C4C4C4" fill-opacity="0.25"/>
<circle cx="0.769005" cy="280.769" r="3.84615" fill="#C4C4C4" fill-opacity="0.25"/>
<circle cx="16.1538" cy="280.769" r="3.84615" fill="#C4C4C4" fill-opacity="0.25"/>
<circle cx="31.5385" cy="280.769" r="3.84615" fill="#C4C4C4" fill-opacity="0.25"/>
<circle cx="46.9233" cy="280.769" r="3.84615" fill="#C4C4C4" fill-opacity="0.25"/>
<circle cx="62.3076" cy="280.769" r="3.84615" fill="#C4C4C4" fill-opacity="0.25"/>
<circle cx="77.6921" cy="280.769" r="3.84615" fill="#C4C4C4" fill-opacity="0.25"/>
<circle cx="93.0774" cy="280.769" r="3.84615" fill="#C4C4C4" fill-opacity="0.25"/>
<circle cx="108.461" cy="280.769" r="3.84615" fill="#C4C4C4" fill-opacity="0.25"/>
<circle cx="123.846" cy="280.769" r="3.84615" fill="#C4C4C4" fill-opacity="0.25"/>
<circle cx="139.231" cy="280.769" r="3.84615" fill="#C4C4C4" fill-opacity="0.25"/>
<circle cx="154.615" cy="280.769" r="3.84615" fill="#C4C4C4" fill-opacity="0.25"/>
<circle cx="170" cy="280.769" r="3.84615" fill="#C4C4C4" fill-opacity="0.25"/>
<circle cx="185.384" cy="280.769" r="3.84615" fill="#C4C4C4" fill-opacity="0.25"/>
<circle cx="200.769" cy="280.769" r="3.84615" fill="#C4C4C4" fill-opacity="0.25"/>
<circle cx="216.154" cy="280.769" r="3.84615" fill="#C4C4C4" fill-opacity="0.25"/>
<circle cx="0.769005" cy="296.154" r="3.84615" fill="#C4C4C4" fill-opacity="0.25"/>
<circle cx="16.1538" cy="296.154" r="3.84615" fill="#C4C4C4" fill-opacity="0.25"/>
<circle cx="31.5385" cy="296.154" r="3.84615" fill="#C4C4C4" fill-opacity="0.25"/>
<circle cx="46.9233" cy="296.154" r="3.84615" fill="#C4C4C4" fill-opacity="0.25"/>
<circle cx="62.3076" cy="296.154" r="3.84615" fill="#C4C4C4" fill-opacity="0.25"/>
<circle cx="77.6921" cy="296.154" r="3.84615" fill="#C4C4C4" fill-opacity="0.25"/>
<circle cx="93.0774" cy="296.154" r="3.84615" fill="#C4C4C4" fill-opacity="0.25"/>
<circle cx="108.461" cy="296.154" r="3.84615" fill="#C4C4C4" fill-opacity="0.25"/>
<circle cx="123.846" cy="296.154" r="3.84615" fill="#C4C4C4" fill-opacity="0.25"/>
<circle cx="139.231" cy="296.154" r="3.84615" fill="#C4C4C4" fill-opacity="0.25"/>
<circle cx="154.615" cy="296.154" r="3.84615" fill="#C4C4C4" fill-opacity="0.25"/>
<circle cx="170" cy="296.154" r="3.84615" fill="#C4C4C4" fill-opacity="0.25"/>
<circle cx="185.384" cy="296.154" r="3.84615" fill="#C4C4C4" fill-opacity="0.25"/>
<circle cx="200.769" cy="296.154" r="3.84615" fill="#C4C4C4" fill-opacity="0.25"/>
<circle cx="216.154" cy="296.154" r="3.84615" fill="#C4C4C4" fill-opacity="0.25"/>
</svg>
