<svg width="241" height="195" viewBox="0 0 241 195" fill="none" xmlns="http://www.w3.org/2000/svg">
<path d="M-51.5 158C11.5 251 36.7507 133.134 98.5 133.5C159.135 133.859 182.5 246.5 239.5 158" stroke="#D1C1B4" stroke-opacity="0.5" stroke-width="2" stroke-linecap="round"/>
<path d="M-51 125.501C12 218.501 37.2507 100.635 99 101.001C159.635 101.36 183 214.001 240 125.501" stroke="#D1C1B4" stroke-opacity="0.5" stroke-width="2" stroke-linecap="round"/>
<path d="M-52 87.5009C11 180.501 36.2507 62.6349 98 63.0009C158.635 63.3602 182 176.001 239 87.5009" stroke="#D1C1B4" stroke-opacity="0.5" stroke-width="2" stroke-linecap="round"/>
<path d="M-51 55.5009C12 148.501 37.2507 30.6349 99 31.0009C159.635 31.3602 183 144.001 240 55.5009" stroke="#D1C1B4" stroke-opacity="0.5" stroke-width="2" stroke-linecap="round"/>
<path d="M-51 71.5009C12 164.501 37.2507 46.6349 99 47.0009C159.635 47.3602 183 160.001 240 71.5009" stroke="#D1C1B4" stroke-opacity="0.5" stroke-width="2" stroke-linecap="round"/>
<path d="M-51 105.501C12 198.501 37.2507 80.6349 99 81.0009C159.635 81.3602 183 194.001 240 105.501" stroke="#D1C1B4" stroke-opacity="0.5" stroke-width="2" stroke-linecap="round"/>
<path d="M-51 138.501C12 231.501 37.2507 113.635 99 114.001C159.635 114.36 183 227.001 240 138.501" stroke="#D1C1B4" stroke-opacity="0.5" stroke-width="2" stroke-linecap="round"/>
<path d="M-51 41.5009C12 134.501 37.2507 16.6349 99 17.0009C159.635 17.3602 183 130.001 240 41.5009" stroke="#D1C1B4" stroke-opacity="0.5" stroke-width="2" stroke-linecap="round"/>
<path d="M-51 25.5009C12 118.501 37.2507 0.634901 99 1.00085C159.635 1.36021 183 114.001 240 25.5009" stroke="#D1C1B4" stroke-opacity="0.5" stroke-width="2" stroke-linecap="round"/>
</svg>
