<svg width="678" height="554" viewBox="0 0 678 554" fill="none" xmlns="http://www.w3.org/2000/svg">
<g filter="url(#filter0_d_1_1198)">
<path d="M595.254 51.8171V404.96C595.254 415.47 585.124 424 572.611 424H93.4767C80.9703 424 70.8403 415.458 70.8403 404.96V51.8171C70.8403 41.3075 80.9703 30.5703 93.4767 30.5703L572.588 31.738C585.094 31.7322 595.254 41.2959 595.254 51.8171Z" fill="#F1F1F1"/>
<path d="M595.254 51.9222V68.2703H70.8403V51.9222C70.8403 46.2593 73.0899 40.8284 77.0941 36.8241C81.0984 32.8199 86.5293 30.5703 92.1922 30.5703H573.878C576.684 30.568 579.463 31.1186 582.056 32.1905C584.649 33.2624 587.005 34.8347 588.99 36.8176C590.975 38.8004 592.55 41.155 593.624 43.7467C594.699 46.3384 595.253 49.1164 595.254 51.9222V51.9222Z" fill="#65617D"/>
<path opacity="0.8" d="M96.2441 56.9608C100.41 56.9608 103.788 53.5834 103.788 49.4173C103.788 45.2511 100.41 41.8738 96.2441 41.8738C92.0779 41.8738 88.7006 45.2511 88.7006 49.4173C88.7006 53.5834 92.0779 56.9608 96.2441 56.9608Z" fill="#FA5959"/>
<path opacity="0.8" d="M118.203 56.9608C122.369 56.9608 125.746 53.5834 125.746 49.4173C125.746 45.2511 122.369 41.8738 118.203 41.8738C114.037 41.8738 110.659 45.2511 110.659 49.4173C110.659 53.5834 114.037 56.9608 118.203 56.9608Z" fill="#FED253"/>
<path opacity="0.8" d="M140.156 56.9608C144.323 56.9608 147.7 53.5834 147.7 49.4173C147.7 45.2511 144.323 41.8738 140.156 41.8738C135.99 41.8738 132.613 45.2511 132.613 49.4173C132.613 53.5834 135.99 56.9608 140.156 56.9608Z" fill="#8CCF4D"/>
<path d="M178.382 184.348H130.079C129.86 184.335 129.64 184.366 129.433 184.441C129.226 184.516 129.037 184.633 128.877 184.783C128.717 184.934 128.59 185.116 128.503 185.317C128.415 185.519 128.37 185.737 128.37 185.956C128.37 186.176 128.415 186.394 128.503 186.595C128.59 186.797 128.717 186.979 128.877 187.13C129.037 187.28 129.226 187.397 129.433 187.472C129.64 187.546 129.86 187.578 130.079 187.565H178.382C178.601 187.578 178.821 187.546 179.028 187.472C179.234 187.397 179.423 187.28 179.583 187.13C179.743 186.979 179.871 186.797 179.958 186.595C180.045 186.394 180.09 186.176 180.09 185.956C180.09 185.737 180.045 185.519 179.958 185.317C179.871 185.116 179.743 184.934 179.583 184.783C179.423 184.633 179.234 184.516 179.028 184.441C178.821 184.366 178.601 184.335 178.382 184.348V184.348ZM178.382 189.865H130.079C129.652 189.865 129.242 190.035 128.939 190.337C128.637 190.64 128.467 191.049 128.467 191.477C128.467 191.904 128.637 192.314 128.939 192.616C129.242 192.919 129.652 193.088 130.079 193.088H178.382C178.809 193.088 179.219 192.919 179.521 192.616C179.823 192.314 179.993 191.904 179.993 191.477C179.993 191.049 179.823 190.64 179.521 190.337C179.219 190.035 178.809 189.865 178.382 189.865V189.865ZM175.959 152.627H132.508C131.438 152.628 130.412 153.054 129.655 153.81C128.897 154.566 128.471 155.591 128.467 156.661V177.096C128.471 178.166 128.897 179.192 129.655 179.948C130.412 180.704 131.438 181.129 132.508 181.131H175.959C177.028 181.128 178.052 180.702 178.808 179.946C179.564 179.19 179.99 178.165 179.993 177.096V156.661C179.99 155.592 179.564 154.568 178.808 153.812C178.052 153.056 177.028 152.63 175.959 152.627V152.627ZM137.897 177.47H133.757C133.33 177.47 132.92 177.3 132.618 176.998C132.316 176.696 132.146 176.286 132.146 175.859C132.146 175.431 132.316 175.021 132.618 174.719C132.92 174.417 133.33 174.247 133.757 174.247H137.897C138.324 174.247 138.734 174.417 139.036 174.719C139.338 175.021 139.508 175.431 139.508 175.859C139.508 176.286 139.338 176.696 139.036 176.998C138.734 177.3 138.324 177.47 137.897 177.47V177.47ZM137.897 159.528H133.757C133.33 159.528 132.92 159.358 132.618 159.056C132.316 158.754 132.146 158.344 132.146 157.916C132.146 157.489 132.316 157.079 132.618 156.777C132.92 156.475 133.33 156.305 133.757 156.305H137.897C138.324 156.305 138.734 156.475 139.036 156.777C139.338 157.079 139.508 157.489 139.508 157.916C139.508 158.344 139.338 158.754 139.036 159.056C138.734 159.358 138.324 159.528 137.897 159.528ZM154.245 176.086C152.425 176.086 150.646 175.547 149.133 174.536C147.62 173.524 146.44 172.087 145.744 170.406C145.047 168.725 144.865 166.874 145.22 165.089C145.575 163.305 146.452 161.665 147.738 160.378C149.025 159.091 150.665 158.215 152.45 157.86C154.235 157.505 156.085 157.687 157.766 158.383C159.448 159.08 160.885 160.259 161.896 161.772C162.907 163.286 163.447 165.065 163.447 166.885C163.444 169.326 162.471 171.667 160.744 173.392C159.016 175.117 156.675 176.086 154.233 176.086H154.245ZM174.721 177.47H170.581C170.154 177.47 169.744 177.3 169.442 176.998C169.14 176.696 168.97 176.286 168.97 175.859C168.97 175.431 169.14 175.021 169.442 174.719C169.744 174.417 170.154 174.247 170.581 174.247H174.721C175.148 174.247 175.558 174.417 175.86 174.719C176.163 175.021 176.332 175.431 176.332 175.859C176.332 176.286 176.163 176.696 175.86 176.998C175.558 177.3 175.148 177.47 174.721 177.47V177.47ZM174.721 159.528H170.581C170.154 159.528 169.744 159.358 169.442 159.056C169.14 158.754 168.97 158.344 168.97 157.916C168.97 157.489 169.14 157.079 169.442 156.777C169.744 156.475 170.154 156.305 170.581 156.305H174.721C175.148 156.305 175.558 156.475 175.86 156.777C176.163 157.079 176.332 157.489 176.332 157.916C176.332 158.344 176.163 158.754 175.86 159.056C175.558 159.358 175.148 159.528 174.721 159.528V159.528Z" fill="#7EC845"/>
<path d="M154.233 173.202C157.599 173.202 160.328 170.473 160.328 167.107C160.328 163.74 157.599 161.011 154.233 161.011C150.866 161.011 148.137 163.74 148.137 167.107C148.137 170.473 150.866 173.202 154.233 173.202Z" fill="white"/>
<path opacity="0.2" d="M465.921 111.961H246.57V233.743H465.921V111.961Z" fill="#7EC845"/>
<path opacity="0.2" d="M465.921 260.986H246.57V382.768H465.921V260.986Z" fill="#7EC845"/>
<path d="M296.345 196.761H289.706V219.006H296.345V196.761Z" fill="white"/>
<path d="M308.986 169.22H302.347V219.006H308.986V169.22Z" fill="white"/>
<path d="M321.632 144.406H314.994V219.006H321.632V144.406Z" fill="#DFE3EF"/>
<path d="M334.279 126.703H327.641V219.006H334.279V126.703Z" fill="white"/>
<path d="M321.632 126.703H314.994V219.006H321.632V126.703Z" fill="#7EC845"/>
<path d="M346.919 168.268H340.281V219.006H346.919V168.268Z" fill="#7EC845"/>
<path opacity="0.2" d="M359.565 155.155H352.927V219.006H359.565V155.155Z" fill="#7EC845"/>
<path d="M372.206 135.239H365.568V219.006H372.206V135.239Z" fill="#7EC845"/>
<path opacity="0.2" d="M384.853 181.703H378.214V219.006H384.853V181.703Z" fill="#7EC845"/>
<path d="M397.499 164.479H390.86V219.006H397.499V164.479Z" fill="#7EC845"/>
<path opacity="0.2" d="M410.14 144.406H403.501V219.006H410.14V144.406Z" fill="#7EC845"/>
<path d="M422.787 144.406H416.148V219.006H422.787V144.406Z" fill="#7EC845"/>
<path d="M179.975 307.152C179.972 306.177 179.584 305.243 178.895 304.554C178.206 303.865 177.272 303.476 176.297 303.473H132.151C131.176 303.476 130.242 303.865 129.552 304.554C128.862 305.243 128.472 306.176 128.467 307.152V312.675H179.975V307.152ZM128.45 336.596C128.453 337.572 128.842 338.507 129.532 339.197C130.222 339.888 131.158 340.277 132.134 340.28H176.297C177.273 340.277 178.207 339.888 178.897 339.197C179.586 338.507 179.974 337.571 179.975 336.596V318.216H128.467L128.45 336.596ZM144.798 331.078H163.662C163.882 331.065 164.101 331.097 164.308 331.172C164.515 331.247 164.704 331.363 164.864 331.514C165.024 331.664 165.151 331.846 165.239 332.048C165.326 332.25 165.371 332.467 165.371 332.687C165.371 332.907 165.326 333.124 165.239 333.326C165.151 333.528 165.024 333.709 164.864 333.86C164.704 334.011 164.515 334.127 164.308 334.202C164.101 334.277 163.882 334.309 163.662 334.295H144.798C144.388 334.271 144.003 334.09 143.721 333.791C143.44 333.493 143.283 333.097 143.283 332.687C143.283 332.276 143.44 331.881 143.721 331.582C144.003 331.283 144.388 331.103 144.798 331.078V331.078ZM136.519 331.078H137.896C138.116 331.065 138.336 331.097 138.542 331.172C138.749 331.247 138.938 331.363 139.098 331.514C139.258 331.664 139.386 331.846 139.473 332.048C139.56 332.25 139.605 332.467 139.605 332.687C139.605 332.907 139.56 333.124 139.473 333.326C139.386 333.528 139.258 333.709 139.098 333.86C138.938 334.011 138.749 334.127 138.542 334.202C138.336 334.277 138.116 334.309 137.896 334.295H136.519C136.299 334.309 136.079 334.277 135.873 334.202C135.666 334.127 135.477 334.011 135.317 333.86C135.157 333.709 135.029 333.528 134.942 333.326C134.855 333.124 134.81 332.907 134.81 332.687C134.81 332.467 134.855 332.25 134.942 332.048C135.029 331.846 135.157 331.664 135.317 331.514C135.477 331.363 135.666 331.247 135.873 331.172C136.079 331.097 136.299 331.065 136.519 331.078V331.078Z" fill="#7EC845"/>
<path d="M296.345 345.78H289.706V368.025H296.345V345.78Z" fill="white"/>
<path d="M308.986 318.239H302.347V368.025H308.986V318.239Z" fill="white"/>
<path d="M321.632 293.425H314.994V368.025H321.632V293.425Z" fill="#DFE3EF"/>
<path d="M334.279 275.722H327.641V368.025H334.279V275.722Z" fill="white"/>
<path d="M321.632 275.722H314.994V368.025H321.632V275.722Z" fill="#7EC845"/>
<path d="M346.919 317.287H340.281V368.025H346.919V317.287Z" fill="#7EC845"/>
<path d="M359.565 304.174H352.927V368.025H359.565V304.174Z" fill="white"/>
<path d="M372.206 284.258H365.568V368.025H372.206V284.258Z" fill="white"/>
<path opacity="0.2" d="M384.853 330.722H378.214V368.025H384.853V330.722Z" fill="#7EC845"/>
<path opacity="0.2" d="M397.499 313.498H390.86V368.025H397.499V313.498Z" fill="#7EC845"/>
<path opacity="0.2" d="M410.14 293.425H403.501V368.025H410.14V293.425Z" fill="#7EC845"/>
<path opacity="0.2" d="M422.787 293.425H416.148V368.025H422.787V293.425Z" fill="#7EC845"/>
</g>
<defs>
<filter id="filter0_d_1_1198" x="0.840332" y="0.570312" width="684.413" height="553.43" filterUnits="userSpaceOnUse" color-interpolation-filters="sRGB">
<feFlood flood-opacity="0" result="BackgroundImageFix"/>
<feColorMatrix in="SourceAlpha" type="matrix" values="0 0 0 0 0 0 0 0 0 0 0 0 0 0 0 0 0 0 127 0" result="hardAlpha"/>
<feOffset dx="10" dy="50"/>
<feGaussianBlur stdDeviation="40"/>
<feColorMatrix type="matrix" values="0 0 0 0 0 0 0 0 0 0 0 0 0 0 0 0 0 0 0.25 0"/>
<feBlend mode="normal" in2="BackgroundImageFix" result="effect1_dropShadow_1_1198"/>
<feBlend mode="normal" in="SourceGraphic" in2="effect1_dropShadow_1_1198" result="shape"/>
</filter>
</defs>
</svg>
