<svg width="47" height="50" viewBox="0 0 47 50" fill="none" xmlns="http://www.w3.org/2000/svg">
<path d="M15.5862 48.6571C4.97463 44.9309 -0.697916 35.2953 0.0687868 25.0982C0.217294 23.0832 1.13526 21.1984 2.63776 19.8237C4.14026 18.449 6.11564 17.6865 8.16596 17.6897H15.5862V48.6571Z" fill="url(#paint0_linear_1_652)"/>
<path fill-rule="evenodd" clip-rule="evenodd" d="M15.5862 48.6593C20.6662 50.4379 26.213 50.4379 31.293 48.6593V8.84448H23.7052C21.5532 8.84861 19.4905 9.69284 17.9688 11.1923C16.4471 12.6918 15.5904 14.7243 15.5862 16.8449V48.6593Z" fill="#E8544F"/>
<path fill-rule="evenodd" clip-rule="evenodd" d="M31.2931 48.6592C40.4241 45.4543 46.9999 36.8359 46.9999 26.7772V0H39.4121C34.9395 0 31.2931 3.59458 31.2931 8.00043V48.6592Z" fill="url(#paint1_linear_1_652)"/>
<path fill-rule="evenodd" clip-rule="evenodd" d="M46.9999 1.62695C46.9999 25.8238 8.78549 20.7175 10.2004 29.3158C10.2004 29.3158 5.95413 29.9887 7.12984 34.1351C10.8351 31.2031 14.8738 33.828 15.5998 37.5482C16.1092 40.1575 15.1191 43.5811 11.644 46.8552H11.6493C15.6379 49.1481 20.2253 50.2282 24.8349 49.9597C36.6887 49.2399 46.9999 39.5716 46.9999 26.7771V1.62695Z" fill="white"/>
<path fill-rule="evenodd" clip-rule="evenodd" d="M7.12988 34.1352C11.792 30.5176 16.5311 35.3079 15.5863 40.3235C15.2006 42.3706 13.9887 44.6453 11.6463 46.8523C11.7912 46.9356 11.9369 47.0167 12.0833 47.097C14.7801 48.5719 17.7465 49.5063 20.8115 49.8463C23.8765 50.1863 26.9795 49.9252 29.9416 49.0779C27.2641 31.0084 16.3265 31.3185 16.3265 31.3185C18.687 32.5082 19.8567 34.8714 19.8567 34.8714C16.7997 31.8271 9.90918 29.6944 7.12988 34.1352" fill="#C4C4C4"/>
<path fill-rule="evenodd" clip-rule="evenodd" d="M12.843 35.4439C14.8443 38.2696 12.5133 42.7928 8.31533 44.5321C9.3343 45.3695 10.4981 46.1942 11.6447 46.8523C13.1086 45.4721 14.4655 43.6169 15.2299 41.6374C16.4267 38.5403 15.5031 34.701 12.3019 33.2659C11.4071 32.8709 10.4064 32.7728 9.45019 32.9863C8.69179 33.1588 7.90848 33.5291 7.12744 34.1352C7.12744 34.1352 10.8395 32.616 12.8407 35.4439" fill="#B2B2B2"/>
<path fill-rule="evenodd" clip-rule="evenodd" d="M31.2932 20.2625C39.5186 17.3051 47 12.3356 47 1.62701V0C46.019 11.224 39.096 16.1362 31.2932 19.2162C25.9262 21.3362 20.1413 22.5907 15.5863 24.4378C14.4095 24.9024 13.2719 25.4583 12.1844 26.1005C13.0809 25.58 14.2393 25.1204 15.5863 24.6876C19.7368 23.3596 25.6878 22.2776 31.2932 20.261" fill="#B2B2B2"/>
<defs>
<linearGradient id="paint0_linear_1_652" x1="7.79311" y1="17.6897" x2="7.79311" y2="48.6571" gradientUnits="userSpaceOnUse">
<stop stop-color="#FA5959"/>
<stop offset="1" stop-color="#FF9900"/>
</linearGradient>
<linearGradient id="paint1_linear_1_652" x1="39.1465" y1="0" x2="39.1465" y2="48.6592" gradientUnits="userSpaceOnUse">
<stop stop-color="#FA5959"/>
<stop offset="1" stop-color="#FF9900"/>
</linearGradient>
</defs>
</svg>
