<svg width="59" height="40" viewBox="0 0 59 40" fill="none" xmlns="http://www.w3.org/2000/svg">
<path fill-rule="evenodd" clip-rule="evenodd" d="M26.1433 0C41.6877 0 58.2525 7.9791 58.2525 23.5235C58.2525 37.6175 40.2373 40 26.1433 40C14.0752 40 0 35.5916 0 23.5235C0 9.78935 12.4091 0 26.1433 0Z" fill="#444053"/>
<path d="M29.1454 10.122C28.9828 9.95934 28.719 9.95934 28.5563 10.122L20.6398 18.0385C19.7867 18.8916 19.7867 20.2746 20.6398 21.1277C21.4928 21.9807 22.8759 21.9807 23.7289 21.1277L26.7672 18.0894V27.9167C26.7672 29.0673 27.6999 30 28.8505 30C30.001 30 30.9337 29.0673 30.9337 27.9167V18.0894L33.972 21.1276C34.825 21.9806 36.2081 21.9806 37.0611 21.1276C37.9142 20.2746 37.9142 18.8915 37.0611 18.0385L29.1454 10.122Z" fill="white"/>
</svg>
