<svg width="158" height="60" viewBox="0 0 158 60" fill="none" xmlns="http://www.w3.org/2000/svg">
<path d="M30 60C46.5685 60 60 46.5685 60 30C60 13.4315 46.5685 0 30 0C13.4315 0 0 13.4315 0 30C0 46.5685 13.4315 60 30 60Z" fill="white"/>
<path d="M26.9399 57.6072C22.8047 57.1328 18.8315 55.7244 15.3209 53.4883C11.8102 51.2523 8.85391 48.2472 6.67565 44.7004C6.60314 44.7004 5.48648 42.5686 5.38013 42.3462C16.2325 47.5573 23.6673 49.6504 30.5171 50.158C32.221 50.3068 33.9352 50.2922 35.6363 50.1145C33.7897 53.0149 32.2525 55.5189 26.9351 57.6072H26.9399Z" fill="#FFD000"/>
<path d="M53.8269 44.1008C51.4255 48.2448 47.9815 51.6882 43.8372 54.089C39.6928 56.4897 34.9924 57.7643 30.203 57.786C33.7363 55.9632 36.8716 53.4556 39.4263 50.4092C40.4623 49.1877 41.7725 48.2286 43.2501 47.6103C45.991 46.4212 50.5301 44.6181 53.8269 44.1008V44.1008Z" fill="#2FB5E8"/>
<path d="M13.1631 42.1044C26.4953 39.3828 43.5643 33.3064 56.2633 36.1102L56.8869 36.2455C56.6284 37.4096 56.2958 38.556 55.8911 39.6777C52.0239 40.833 47.8521 42.7376 43.0664 44.8066C39.5666 46.3245 35.332 46.6387 30.875 46.2568C29.4973 46.136 28.1099 45.9523 26.7129 45.7154C22.1072 44.8752 17.5761 43.6676 13.1631 42.1044V42.1044Z" fill="#A7DB25"/>
<path d="M57.375 27.4234C57.476 28.3869 57.526 29.3551 57.5249 30.3238C57.5249 31.078 57.4959 31.8224 57.4379 32.5572C56.0889 32.2416 54.7189 32.0235 53.3386 31.9046C40.9876 31.0441 22.8842 37.2607 10.7991 41.2778C9.22806 40.688 7.77785 40.1224 6.51133 39.639C5.75722 39.3248 4.83392 38.9429 3.86711 38.5127C2.0903 32.8002 2.22095 26.6646 4.23934 21.0328C14.2313 20.1627 21.9996 22.1978 32.3251 25.3835C41.3599 28.1389 48.7801 29.3329 57.375 27.4234Z" fill="#51A31A"/>
<path d="M23.8414 19.7132C22.657 19.4666 21.4824 19.2298 20.3174 19.0799C15.2666 18.3867 10.1483 18.338 5.08533 18.9349C6.43261 15.9907 8.28826 13.3071 10.5671 11.0071C11.007 11.1569 11.4276 11.3165 11.8336 11.4905C16.5952 13.5546 18.4273 15.3577 22.4008 18.611C22.8842 18.9929 23.3435 19.3603 23.851 19.7083L23.8414 19.7132Z" fill="#2FB5E8"/>
<path d="M52.5072 14.502C54.6207 17.489 56.1118 20.8706 56.8917 24.4456C53.9751 24.9508 51.0105 25.1227 48.0551 24.9581C43.7383 24.6728 39.175 23.5755 34.5681 22.3767C34.0949 22.1559 33.5966 21.9935 33.0841 21.8933C29.0042 20.7234 27.1285 19.7035 24.1169 16.7209C20.8201 13.4531 17.7844 10.3931 13.6658 8.31449C15.5068 6.94184 17.5124 5.80506 19.6358 4.93066C26.65 10.0064 35.3464 15.7347 42.3219 16.3293C44.6713 16.5275 48.814 15.6235 52.5072 14.5117V14.502Z" fill="#017CC0"/>
<path d="M30.0725 2.90038C33.8635 2.89595 37.6142 3.67913 41.0867 5.20027C44.5592 6.72141 47.6778 8.94735 50.2449 11.737C48.5578 12.0802 46.8321 12.3558 45.0822 12.5733C37.7054 13.4676 29.5117 8.34834 22.135 4.04122C24.7105 3.27358 27.385 2.88919 30.0725 2.90038V2.90038Z" fill="#2FB5E8"/>
<path d="M156.41 31.9867L153.239 32.2332C153.239 29.6229 153.239 27.1043 153.239 24.4988H151.015C150.129 24.5076 149.282 24.8634 148.656 25.4897C148.03 26.1161 147.674 26.963 147.665 27.8488V44.2845C147.668 46.0486 148.37 47.7398 149.618 48.9868C150.866 50.2338 152.557 50.9348 154.321 50.9361H157.705C157.705 46.2858 153.234 47.8278 153.234 44.2845V35.9844C154.12 35.9431 154.955 35.552 155.553 34.8969C156.152 34.2419 156.467 33.3762 156.429 32.4894L156.405 32.006L156.41 31.9867Z" fill="white"/>
<path d="M74.2265 47.5573C74.2265 44.9469 74.2265 26.9353 74.2265 24.3201H72.027C71.1354 24.32 70.2798 24.6719 69.6462 25.2992C69.0126 25.9265 68.6521 26.7785 68.6432 27.6701V44.0816C68.6419 44.9578 68.8134 45.8257 69.1478 46.6356C69.4823 47.4455 69.9731 48.1815 70.5922 48.8015C71.2114 49.4215 71.9467 49.9134 72.7561 50.249C73.5655 50.5846 74.4331 50.7574 75.3093 50.7574" fill="white"/>
<path d="M87.9794 35.3755C87.9794 33.8141 89.2942 32.9294 91.0055 32.4219C94.9259 31.1263 98.3774 31.5566 100.756 31.5566V32.6684C100.756 34.8244 99.552 35.8395 97.8553 35.8927C95.564 35.97 95.7912 35.709 93.6304 36.3423V47.5089C93.6304 48.4063 93.2738 49.267 92.6393 49.9016C92.0047 50.5362 91.144 50.8927 90.2465 50.8927H87.9939C88.0035 45.4399 87.9794 40.8427 87.9794 35.3755Z" fill="white"/>
<path d="M112.391 54.4651C113.875 53.8705 115.384 51.8354 116.742 52.7152C117.617 53.2808 119.435 53.2421 120.31 52.7152C121.044 52.2753 120.822 45.6575 120.822 44.4974C116.471 44.4249 110.032 42.6943 110.032 37.4638C110.032 32.799 115.065 31.0878 119.048 31.0056C121.416 30.9572 126.299 31.489 126.299 34.5924V44.6375C126.299 45.498 126.173 52.1013 125.941 52.7781C125.68 53.5542 125.246 54.2614 124.674 54.8473C124.102 55.4331 123.405 55.8824 122.635 56.1619C120.875 56.858 118.202 56.9547 115.93 56.5003L112.391 54.4651ZM115.311 37.4542C115.311 39.2476 117.892 41.4519 120.861 41.4374L120.803 34.3942C119.024 33.8045 115.287 34.2927 115.326 37.459L115.311 37.4542Z" fill="white"/>
<path d="M74.3571 31.5034C78.7077 31.5759 85.8766 36.2311 85.8766 41.4567C85.8766 46.1264 80.1096 50.7525 76.1312 50.8395C73.7577 50.8879 68.8801 50.3561 68.8801 47.2527V37.2221L74.3571 31.5034ZM80.5978 41.4809C80.5978 39.6923 77.2865 34.5634 74.3136 34.5779L74.3716 47.4654C76.1505 48.031 80.6172 44.623 80.5785 41.4567L80.5978 41.4809Z" fill="white"/>
<path d="M104.899 31.5034H107.949V48.5917C107.949 49.1879 107.712 49.7596 107.29 50.1812C106.869 50.6027 106.297 50.8395 105.701 50.8395H102.757V33.6497C102.756 33.3681 102.811 33.0891 102.919 32.8287C103.026 32.5684 103.184 32.3317 103.383 32.1324C103.582 31.933 103.818 31.7748 104.078 31.6669C104.338 31.559 104.617 31.5034 104.899 31.5034Z" fill="white"/>
<path d="M129.141 34.7132C129.141 31.078 136.271 31.0925 138.974 31.0925C139.807 31.1043 140.629 31.2891 141.387 31.6353C142.145 31.9815 142.823 32.4814 143.377 33.1035C144.519 34.3456 145.161 35.9656 145.181 37.6523V47.3204C145.181 48.2178 144.824 49.0785 144.189 49.7131C143.555 50.3477 142.694 50.7042 141.797 50.7042H139.684V37.6523C139.675 37.0494 139.44 36.4718 139.027 36.0329C138.876 35.8534 138.69 35.7067 138.481 35.602C138.271 35.4972 138.043 35.4366 137.809 35.4238C137.055 35.4238 134.792 35.4238 134.091 35.68V47.2817C134.091 48.1791 133.735 49.0398 133.1 49.6744C132.466 50.309 131.605 50.6655 130.707 50.6655H129.185C129.161 45.2127 129.141 40.1805 129.141 34.7132Z" fill="white"/>
<path d="M131.287 24.0637H134.338V48.4562C134.338 49.0524 134.101 49.6241 133.679 50.0457C133.258 50.4672 132.686 50.7041 132.09 50.7041H129.146V26.2052C129.146 25.6372 129.371 25.0926 129.773 24.6909C130.175 24.2893 130.719 24.0637 131.287 24.0637V24.0637Z" fill="white"/>
<path d="M105.334 29.5118C106.767 29.5118 107.929 28.3496 107.929 26.9159C107.929 25.4823 106.767 24.3201 105.334 24.3201C103.9 24.3201 102.738 25.4823 102.738 26.9159C102.738 28.3496 103.9 29.5118 105.334 29.5118Z" fill="white"/>
</svg>
