<svg width="120" height="122" viewBox="0 0 120 122" fill="none" xmlns="http://www.w3.org/2000/svg">
<path fill-rule="evenodd" clip-rule="evenodd" d="M61.7581 0.883604C68.978 1.83373 75.7046 4.70422 82.2567 7.8823C88.5372 10.9286 94.0553 15.0507 99.6291 19.2529C105.548 23.7155 112.759 27.1279 116.371 33.6016C119.987 40.0855 120.333 48.0117 119.801 55.4169C119.294 62.4821 115.835 68.8402 113.362 75.4781C111.02 81.767 109.072 88.1458 105.495 93.8244C101.778 99.726 97.2141 104.97 91.924 109.515C86.2219 114.415 80.6073 120.847 73.1307 121.634C65.5447 122.432 58.995 116.435 51.8628 113.73C45.6424 111.371 39.3268 109.622 33.415 106.571C27.2386 103.384 20.5141 100.644 16.1008 95.2742C11.663 89.8749 10.8877 82.4971 8.29395 76.0073C5.48644 68.9825 -0.512745 62.6211 0.0351353 55.0759C0.581345 47.5538 7.26682 42.0526 11.2257 35.6333C14.9366 29.6159 18.3146 23.5351 22.8374 18.1015C27.7232 12.2318 32.0729 5.28698 39.057 2.19731C46.0482 -0.895487 54.1787 -0.113831 61.7581 0.883604Z" fill="#F9F9F9"/>
</svg>
