<svg width="101" height="100" viewBox="0 0 101 100" fill="none" xmlns="http://www.w3.org/2000/svg">
<path fill-rule="evenodd" clip-rule="evenodd" d="M50.2156 0.0118175C57.5757 0.191559 64.4774 3.00213 71.1624 6.08652C77.9194 9.20409 84.6867 12.5858 89.5934 18.1803C94.5897 23.8769 97.9422 30.9199 99.4548 38.3445C100.953 45.6976 99.8019 53.2043 98.2237 60.5406C96.6329 67.9352 95.0557 75.671 90.1809 81.4543C85.3376 87.2001 77.8504 89.6497 71.0293 92.8031C64.2883 95.9194 57.6301 99.5093 50.2156 99.9301C42.6394 100.36 34.9248 98.8087 28.2323 95.2319C21.6384 91.7078 17.0575 85.5886 12.4151 79.7279C7.78338 73.8807 2.80111 68.0544 0.975068 60.8219C-0.864576 53.5356 0.132976 45.8567 2.02731 38.5844C3.89217 31.4252 7.25573 24.7862 11.8685 19.0022C16.4812 13.2184 22.1406 8.33437 28.7702 5.05125C35.4342 1.75107 42.7814 -0.169734 50.2156 0.0118175Z" fill="#D1C1B4"/>
</svg>
