<svg width="150" height="133" viewBox="0 0 150 133" fill="none" xmlns="http://www.w3.org/2000/svg">
<path fill-rule="evenodd" clip-rule="evenodd" d="M75.7252 0.223278C89.5954 0.629516 103.463 1.51173 115.502 8.44574C128.563 15.9681 140.263 26.5183 145.805 40.5851C151.552 55.1735 151.096 71.5857 146.252 86.5017C141.413 101.404 132.12 114.866 118.955 123.271C106.263 131.374 90.5855 133.832 75.7252 131.53C62.2173 129.437 52.5923 118.819 41.2031 111.226C29.1443 103.186 14.0716 98.6485 7.20499 85.8463C-0.279424 71.8921 -2.26337 54.6691 2.81957 39.6623C7.87031 24.7505 20.4266 13.531 34.2275 6.06532C46.8352 -0.754951 61.4133 -0.195897 75.7252 0.223278Z" fill="#D1C1B4"/>
</svg>
